<?xml version="1.0" encoding="UTF-8"?>
<svg id="Camada_2" xmlns="http://www.w3.org/2000/svg" version="1.1" viewBox="0 0 1920 1920">
  <!-- Generator: Adobe Illustrator 29.2.1, SVG Export Plug-In . SVG Version: 2.1.0 Build 116)  -->
  <defs>
    <style>
      .st0 {
        fill: none;
        stroke: #fff;
        stroke-miterlimit: 10;
        stroke-width: 7.5px;
      }
    </style>
  </defs>
  <path class="st0" d="M883.1,916.4l-43.6,4.4,6.5,136.1s74,25,79.5,33.8c5.4,8.7,2.2,44.6,6.5,44.6s82.7-12,82.7-19.6v-50.7s-61-26.6-71.9-25.5c-10.9,1.1-26.1-47.9-20.7-141.5,0,0-26.1-45.4-117.6-12.7v179.8s6.5,50.3,97.3,70.3l4.4,78-182.9-110.3v-266.4l237.4-129.9,235.9,134.3v262l-128.5,77.7-2.2-139.4-69.7-2.9s-13.8-13.1.7-18.1c14.5-5.1,42.8-3.6,42.8-3.6v-43.6l53,1.5v36.3s34.1-.7,46.5,5.8"/>
  <path class="st0" d="M960.4,706.7v57.3s-39.9,2.9-41.4,28.3h82s-14.4-27.9-40.6-28.3"/>
  <path class="st0" d="M949.7,792.3s-9.2,23.9,11.5,23.1,7.6-23.1,7.6-23.1"/>
  <path class="st0" d="M919,792.3s8.2,30.6,40.3,30.7c32.1.1,41.6-22.6,41.7-30.7"/>
</svg>