<?xml version="1.0" encoding="UTF-8"?>
<svg id="Camada_2" xmlns="http://www.w3.org/2000/svg" version="1.1" viewBox="0 0 1920 1920">
  <!-- Generator: Adobe Illustrator 29.2.1, SVG Export Plug-In . SVG Version: 2.1.0 Build 116)  -->
  <defs>
    <style>
      .st0 {
        font-family: LEMONMILK-Regular, 'LEMON MILK';
        font-size: 135.6px;
      }

      .st1 {
        fill: none;
        stroke: #000;
        stroke-miterlimit: 10;
        stroke-width: 7.9px;
      }
    </style>
  </defs>
  <g>
    <path class="st1" d="M392,931.8l-45.8,4.6,6.9,143.1s77.9,26.3,83.6,35.5c5.7,9.2,2.3,46.9,6.9,46.9s87-12.6,87-20.6v-53.3s-64.1-28-75.6-26.9c-11.4,1.1-27.5-50.4-21.8-148.8,0,0-27.5-47.7-123.7-13.4v189.1s6.9,52.9,102.3,73.9l4.6,82.1-192.3-116v-280.1l249.6-136.6,248.1,141.2v275.5l-135.1,81.7-2.3-146.6-73.3-3.1s-14.5-13.7.8-19.1c15.3-5.3,45-3.8,45-3.8v-45.8l55.7,1.5v38.2s35.9-.8,48.9,6.1"/>
    <path class="st1" d="M473.7,711.2v60.3s-42,3.1-43.5,29.8h86.3s-15.2-29.3-42.7-29.8"/>
    <path class="st1" d="M461.3,801.2s-9.7,25.2,12,24.3,7.9-24.3,7.9-24.3"/>
    <path class="st1" d="M430.2,801.2s8.6,32.2,42.4,32.3c33.7.1,43.7-23.7,43.9-32.3"/>
  </g>
  <text class="st0" transform="translate(857.9 1020)"><tspan x="0" y="0">eco raises</tspan></text>
</svg>