<?xml version="1.0" encoding="UTF-8"?>
<svg id="Camada_2" xmlns="http://www.w3.org/2000/svg" version="1.1" viewBox="0 0 1920 1920">
  <!-- Generator: Adobe Illustrator 29.2.1, SVG Export Plug-In . SVG Version: 2.1.0 Build 116)  -->
  <defs>
    <style>
      .st0 {
        font-family: LEMONMILK-Regular, 'LEMON MILK';
        font-size: 237.4px;
      }

      .st1 {
        fill: none;
        stroke: #000;
        stroke-miterlimit: 10;
        stroke-width: 15px;
      }
    </style>
  </defs>
  <g>
    <path class="st1" d="M806.1,583.8l-87.1,8.7,13.1,272.2s148.1,50.1,159,67.5c10.9,17.4,4.4,89.3,13.1,89.3s165.5-24,165.5-39.2v-101.3s-121.9-53.3-143.7-51.1c-21.8,2.2-52.3-95.8-41.4-283.1,0,0-52.3-90.7-235.2-25.4v359.6s13.1,100.6,194.5,140.5l8.7,156.1-365.8-220.7V424.1l474.7-259.9,471.8,268.6v524.1l-257,155.3-4.4-278.7-139.4-5.8s-27.6-26.1,1.5-36.3c29-10.2,85.7-7.3,85.7-7.3v-87.1l106,2.9v72.6s68.2-1.5,92.9,11.6"/>
    <path class="st1" d="M961.5,164.2v114.7s-79.8,5.8-82.7,56.6h164s-28.9-55.7-81.3-56.6"/>
    <path class="st1" d="M937.8,335.5s-18.4,47.9,22.9,46.2c39.4-1.6,15.1-46.2,15.1-46.2"/>
    <path class="st1" d="M878.7,335.5s16.3,61.2,80.6,61.5c64.2.3,83.1-45.2,83.5-61.5"/>
  </g>
  <text class="st0" transform="translate(245.1 1467.5)"><tspan x="0" y="0">eco raises</tspan></text>
</svg>