<?xml version="1.0" encoding="UTF-8"?>
<svg id="Camada_1" xmlns="http://www.w3.org/2000/svg" version="1.1" xmlns:xlink="http://www.w3.org/1999/xlink" viewBox="0 0 1920 336">
  <!-- Generator: Adobe Illustrator 29.2.1, SVG Export Plug-In . SVG Version: 2.1.0 Build 116)  -->
  <defs>
    <style>
      .st0 {
        fill: #fff;
      }

      .st1 {
        fill: none;
      }

      .st2 {
        clip-path: url(#clippath-1);
      }

      .st3 {
        fill: #fff4e7;
      }

      .st4 {
        clip-path: url(#clippath-3);
      }

      .st5 {
        fill: maroon;
      }

      .st6 {
        isolation: isolate;
        opacity: .6;
      }

      .st6, .st7 {
        fill: #008024;
      }

      .st8 {
        clip-path: url(#clippath-2);
      }

      .st9 {
        clip-path: url(#clippath);
      }
    </style>
    <clipPath id="clippath">
      <rect class="st1" x="1008" width="504" height="336"/>
    </clipPath>
    <clipPath id="clippath-1">
      <rect class="st1" x="1510.8" width="491" height="336"/>
    </clipPath>
    <clipPath id="clippath-2">
      <rect class="st1" width="504" height="336"/>
    </clipPath>
    <clipPath id="clippath-3">
      <rect class="st1" x="504" width="504" height="336"/>
    </clipPath>
  </defs>
  <g class="st9">
    <g>
      <path class="st3" d="M1512,0h-504v336h504V0Z"/>
      <path class="st7" d="M1428,336h84v-84h-84v84Z"/>
      <path class="st0" d="M1428,252v84c23.2,0,42-18.8,42-42s-18.8-42-42-42Z"/>
      <path class="st5" d="M1512,336v-84c-23.2,0-42,18.8-42,42s18.8,42,42,42Z"/>
      <path d="M1498.6,319.2c-9-4.8-15.1-14.3-15.1-25.2s6.1-20.4,15.1-25.2v50.4h0Z"/>
      <path class="st5" d="M1092,0h-84v84h84V0Z"/>
      <path d="M1050,0v84c23.2,0,42-18.8,42-42S1073.2,0,1050,0Z"/>
      <path class="st0" d="M1008,0v84c23.2,0,42-18.8,42-42S1031.2,0,1008,0Z"/>
      <path d="M1134,126h-42v42h42v-42Z"/>
      <path d="M1176,84h-42v42h42v-42Z"/>
      <path class="st0" d="M1161.7,126c0,15.3-12.4,27.7-27.7,27.7v-27.7h27.7Z"/>
      <path class="st0" d="M1134,98.3v27.7h-27.7c0-15.3,12.4-27.7,27.7-27.7Z"/>
      <path class="st7" d="M1106.3,126h27.7v27.7c-15.3,0-27.7-12.4-27.7-27.7Z"/>
      <path class="st7" d="M1161.7,126h-27.7v-27.7c15.3,0,27.7,12.4,27.7,27.7Z"/>
      <path class="st7" d="M1204,336v-42l-28,21,28,21Z"/>
      <path class="st7" d="M1232,336v-42l-28,21,28,21Z"/>
      <path class="st5" d="M1260,336v-42l-28,21,28,21Z"/>
      <path class="st0" d="M1232,252v42l28-21-28-21Z"/>
      <path class="st0" d="M1204,252v42l28-21-28-21Z"/>
      <path class="st5" d="M1176,252v42l28-21-28-21Z"/>
      <path class="st7" d="M1008,294l42,42v-42h-42Z"/>
      <path class="st0" d="M1029,273l42,42v-42h-42Z"/>
      <path class="st5" d="M1050,252l42,42v-42h-42Z"/>
      <path class="st5" d="M1428,84h-84v84h84v-84Z"/>
      <path class="st7" d="M1428,126l-42-42v42h42Z"/>
      <path class="st0" d="M1407,147l-42-42v42h42Z"/>
      <path class="st0" d="M1386,168l-42-42v42h42Z"/>
      <path class="st7" d="M1092,84v84h-84v-42l42-42h42Z"/>
      <path class="st5" d="M1050,126l-42,42h42v-42Z"/>
      <path class="st5" d="M1092,126l-42,42h42v-42Z"/>
      <path class="st0" d="M1050,126l42-42h-42v42Z"/>
      <path class="st0" d="M1092,168h-84v84h84v-84Z"/>
      <path class="st7" d="M1071,252h-63v-21l21-21,42,42Z"/>
      <path class="st5" d="M1092,252h-84l42-42,42,42Z"/>
      <path d="M1092,231v21h-63l42-42,21,21Z"/>
      <path class="st5" d="M1092,252h84v-84h-84v84Z"/>
      <path class="st0" d="M1134,232.1c12.2,0,22.1-9.9,22.1-22.1s-9.9-22.1-22.1-22.1-22.1,9.9-22.1,22.1,9.9,22.1,22.1,22.1Z"/>
      <path class="st7" d="M1092,168h84l-42,42-42-42Z"/>
      <path class="st0" d="M1428,84h84V0h-84v84Z"/>
      <path class="st5" d="M1512,84h-84c23.2-22.4,60.8-22.4,84,0Z"/>
      <path class="st7" d="M1512,67.2h-84c23.2-22.4,60.8-22.4,84,0Z"/>
      <path class="st5" d="M1512,50.4h-84c23.2-22.4,60.8-22.4,84,0Z"/>
      <path class="st7" d="M1512,33.5h-84c23.2-22.4,60.8-22.4,84,0Z"/>
      <path class="st5" d="M1512,16.7h-84c23.2-22.4,60.8-22.4,84,0Z"/>
      <path class="st7" d="M1260,0v41.1h-42.9v42.9h-41.1V0h84Z"/>
      <path d="M1239.6,20.4h-43.2v43.2h43.2V20.4Z"/>
      <path class="st0" d="M1218,20.4h-21.6v21.6h21.6v-21.6Z"/>
      <path class="st0" d="M1260,84h-84v84h84v-84Z"/>
      <path class="st7" d="M1260.3,105h-63.3v42h63.3v-42Z"/>
      <path class="st5" d="M1197,147c11.6,0,21-9.4,21-21s-9.4-21-21-21-21,9.4-21,21,9.4,21,21,21Z"/>
      <path d="M1225.4,134.2c4.6-4.1,4.9-11.1.8-15.7s-11.1-4.9-15.7-.8-4.9,11.1-.8,15.7c4.1,4.6,11.1,4.9,15.7.8Z"/>
      <path d="M1344,126.1v41.8h-42v-.8c0-22.6,18.4-41,41-41s.7,0,1,0Z"/>
      <path class="st5" d="M1314.1,84.5v53.6h-53.8v-1.1c0-29,23.5-52.6,52.6-52.6s.8,0,1.3,0h0Z"/>
      <path class="st7" d="M1428,168h-84v84h84v-84Z"/>
      <path class="st0" d="M1343.9,251.8v-83.7h84v1.7c0,45.3-36.8,82.1-82.1,82.1s-1.3,0-2,0h0Z"/>
      <path class="st7" d="M1343.9,232.1v-64h64.3v1.3c0,34.7-28.1,62.8-62.8,62.8s-1,0-1.5,0h0Z"/>
      <path d="M1343.9,212v-43.9h44.1v.9c0,23.8-19.3,43-43.1,43s-.7,0-1,0Z"/>
      <path class="st5" d="M1428,252h-84v84h84v-84Z"/>
      <path class="st7" d="M1426.7,311.2c-32,0-57.9-25.9-57.9-57.9s0-.9,0-1.4h18.6v1c0,21.9,17.8,39.7,39.7,39.7s.6,0,.8,0v18.6h-1.2Z"/>
      <path class="st0" d="M1345.2,276.8c32,0,57.9,25.9,57.9,57.9s0,.9,0,1.4h-18.6v-1c0-21.9-17.8-39.7-39.7-39.7s-.5,0-.8,0v-18.6h1.2Z"/>
      <path class="st5" d="M1260,84h84V0h-84v84Z"/>
      <path d="M1297.2,37.1c6.5-6.5,6.5-17,0-23.4-6.5-6.5-17-6.5-23.5,0s-6.5,17,0,23.4c6.5,6.5,17,6.5,23.5,0Z"/>
      <path class="st7" d="M1328.5,38.7c7.3-5.5,8.8-15.9,3.4-23.2-5.5-7.3-15.9-8.9-23.2-3.4-7.3,5.5-8.9,15.9-3.4,23.2,5.5,7.3,15.9,8.9,23.2,3.4Z"/>
      <path class="st0" d="M1297.2,70.3c6.5-6.5,6.5-17,0-23.4-6.5-6.5-17-6.5-23.5,0s-6.5,17,0,23.4c6.5,6.5,17,6.5,23.5,0Z"/>
      <path d="M1328.5,71.8c7.3-5.5,8.8-15.9,3.4-23.2s-15.9-8.9-23.2-3.4c-7.3,5.5-8.8,15.9-3.4,23.2,5.5,7.3,15.9,8.9,23.2,3.4Z"/>
      <path class="st7" d="M1365,0h-21v21h21V0Z"/>
      <path d="M1386,20.9h-21v21h21v-21Z"/>
      <path d="M1386,62.9h-21v21h21v-21Z"/>
      <path class="st7" d="M1407,41.9h-21v21h21v-21Z"/>
      <path class="st7" d="M1365.1,41.9h-21v21h21v-21Z"/>
      <path class="st7" d="M1407,0h-21v21h21V0Z"/>
      <path d="M1428,62.9h-21v21h21v-21Z"/>
      <path d="M1428,20.9h-21v21h21v-21Z"/>
      <path class="st7" d="M1260,336h84v-84h-84v84Z"/>
      <path class="st0" d="M1327.7,319.7c-8.4,2.3-17.5,1.8-25.7-1.3-5.4-2-10.5-5.2-14.8-9.6-4.4-4.4-7.6-9.4-9.6-14.9-3.1-8.2-3.5-17.3-1.3-25.7,8.4-2.3,17.5-1.8,25.7,1.3,5.4,2,10.5,5.2,14.8,9.6,4.4,4.4,7.6,9.4,9.6,14.9,3.1,8.2,3.5,17.3,1.3,25.7Z"/>
      <path d="M1326.4,294c-2-5.4-5.2-10.5-9.6-14.9s-9.4-7.6-14.8-9.6c8.2-3.1,17.3-3.5,25.7-1.3,2.3,8.5,1.8,17.5-1.3,25.7h0Z"/>
      <path d="M1302,318.4c-8.2,3.1-17.3,3.5-25.7,1.3-2.3-8.5-1.8-17.5,1.3-25.7,2,5.4,5.2,10.5,9.6,14.9s9.4,7.6,14.8,9.6h0Z"/>
      <path class="st5" d="M1326.4,294c-2,5.4-5.2,10.5-9.6,14.9s-9.4,7.6-14.8,9.6c-5.4-2-10.5-5.2-14.8-9.6-4.4-4.4-7.6-9.4-9.6-14.9,2-5.4,5.2-10.5,9.6-14.9s9.4-7.6,14.8-9.6c5.4,2,10.5,5.2,14.8,9.6,4.4,4.4,7.6,9.4,9.6,14.9Z"/>
      <path d="M1493,84.5h-46.1v64.5h46.1v-64.5Z"/>
      <path class="st5" d="M1470,116.7c12.7,0,23,10.3,23,23v9.2h-46.1v-9.2c0-12.7,10.3-23,23-23h0Z"/>
      <path class="st0" d="M1092,84h84V0h-84v84Z"/>
      <path class="st7" d="M1134,84c23.2,0,42-18.8,42-42S1157.2,0,1134,0s-42,18.8-42,42,18.8,42,42,42Z"/>
      <path class="st5" d="M1148.9,56.8c8.2-8.2,8.2-21.5,0-29.7s-21.5-8.2-29.7,0-8.2,21.5,0,29.7,21.5,8.2,29.7,0Z"/>
      <path class="st7" d="M1260,168h-84v84h84v-84Z"/>
      <path d="M1260,175.9v-7.9c-23.2,0-42,18.8-42,42s18.8,42,42,42v-7.9c-18.8,0-34.1-15.3-34.1-34.1s15.3-34.1,34.1-34.1Z"/>
      <path d="M1260,191.3v-7.9c-14.7,0-26.6,11.9-26.6,26.6s11.9,26.6,26.6,26.6v-7.9c-10.3,0-18.7-8.4-18.7-18.7s8.4-18.7,18.7-18.7h0Z"/>
      <path d="M1260,205.9v-7.9c-6.6,0-12,5.4-12,12s5.4,12,12,12v-7.9c-2.2,0-4.1-1.8-4.1-4.1s1.8-4.1,4.1-4.1h0Z"/>
      <path class="st0" d="M1176,168v84c23.2,0,42-18.8,42-42s-18.8-42-42-42Z"/>
      <path class="st0" d="M1092,336h84v-84h-84v84Z"/>
      <path class="st5" d="M1134,336v-84c-23.2,0-42,18.8-42,42s18.8,42,42,42Z"/>
      <path class="st7" d="M1134,252l42,42-42,42v-84Z"/>
      <path class="st5" d="M1428,252h84v-84h-84v84Z"/>
      <path d="M1470,180.6h29.4v29.4c0,16.2-13.2,29.4-29.4,29.4s-29.4-13.2-29.4-29.4,13.2-29.4,29.4-29.4Z"/>
      <path class="st0" d="M1479.5,222.5c6.9-5.2,8.3-15.1,3.1-22-5.2-6.9-15.1-8.3-22-3.1s-8.3,15.1-3.1,22c5.2,6.9,15.1,8.3,22,3.1Z"/>
      <path class="st0" d="M1344,168h-84v84h84v-84Z"/>
      <path class="st7" d="M1344,210h-84c0,23.2,18.8,42,42,42s42-18.8,42-42Z"/>
      <path class="st5" d="M1302,168v42h42c0-23.2-18.8-42-42-42Z"/>
      <path d="M1313.8,212c1.1-6.5-3.3-12.7-9.8-13.8s-12.7,3.3-13.8,9.8c-1.1,6.5,3.3,12.7,9.8,13.8s12.7-3.3,13.8-9.8Z"/>
    </g>
  </g>
  <g class="st2">
    <g>
      <path class="st3" d="M2001.8,0h-491v338.2h491V0Z"/>
      <path class="st5" d="M1592.6,0h-81.8v84.6h81.8V0Z"/>
      <path d="M1551.7,0v84.6c22.6,0,40.9-18.9,40.9-42.3S1574.3,0,1551.7,0Z"/>
      <path class="st0" d="M1510.8,0v84.6c22.6,0,40.9-18.9,40.9-42.3S1533.4,0,1510.8,0Z"/>
      <path d="M1633.6,126.8h-40.9v42.3h40.9v-42.3Z"/>
      <path d="M1674.5,84.6h-40.9v42.3h40.9v-42.3Z"/>
      <path class="st0" d="M1660.5,126.8c0,15.4-12.1,27.9-27,27.9v-27.9h27Z"/>
      <path class="st0" d="M1633.6,98.9v27.9h-27c0-15.4,12.1-27.9,27-27.9Z"/>
      <path class="st7" d="M1606.6,126.8h27v27.9c-14.9,0-27-12.5-27-27.9Z"/>
      <path class="st7" d="M1660.5,126.8h-27v-27.9c14.9,0,27,12.5,27,27.9Z"/>
      <path class="st7" d="M1701.8,338.2v-42.3l-27.3,21.1,27.3,21.1Z"/>
      <path class="st7" d="M1729,338.2v-42.3l-27.3,21.1,27.3,21.1Z"/>
      <path class="st5" d="M1756.3,338.2v-42.3l-27.3,21.1,27.3,21.1Z"/>
      <path class="st0" d="M1729,253.7v42.3l27.3-21.1-27.3-21.1Z"/>
      <path class="st0" d="M1701.8,253.7v42.3l27.3-21.1-27.3-21.1Z"/>
      <path class="st5" d="M1674.5,253.7v42.3l27.3-21.1-27.3-21.1Z"/>
      <path class="st7" d="M1510.8,295.9l40.9,42.3v-42.3h-40.9Z"/>
      <path class="st0" d="M1531.3,274.8l40.9,42.3v-42.3h-40.9Z"/>
      <path class="st5" d="M1551.7,253.7l40.9,42.3v-42.3h-40.9Z"/>
      <path class="st5" d="M1920,84.6h-81.8v84.6h81.8v-84.6Z"/>
      <path class="st7" d="M1920,126.8l-40.9-42.3v42.3h40.9Z"/>
      <path class="st0" d="M1899.5,148l-40.9-42.3v42.3h40.9Z"/>
      <path class="st0" d="M1879.1,169.1l-40.9-42.3v42.3h40.9Z"/>
      <path class="st7" d="M1592.6,84.6v84.6h-81.8v-42.3l40.9-42.3h40.9Z"/>
      <path class="st5" d="M1551.7,126.8l-40.9,42.3h40.9v-42.3Z"/>
      <path class="st5" d="M1592.6,126.8l-40.9,42.3h40.9v-42.3Z"/>
      <path class="st0" d="M1551.7,126.8l40.9-42.3h-40.9v42.3Z"/>
      <path class="st0" d="M1592.6,169.1h-81.8v84.6h81.8v-84.6Z"/>
      <path class="st7" d="M1572.2,253.7h-61.4v-21.1l20.5-21.1,40.9,42.3Z"/>
      <path class="st5" d="M1592.6,253.7h-81.8l40.9-42.3,40.9,42.3Z"/>
      <path d="M1592.6,232.5v21.1h-61.4l40.9-42.3,20.5,21.1Z"/>
      <path class="st5" d="M1592.6,253.7h81.8v-84.6h-81.8v84.6Z"/>
      <path class="st0" d="M1633.6,233.6c11.9,0,21.6-10,21.6-22.2s-9.7-22.2-21.6-22.2-21.6,10-21.6,22.2,9.7,22.2,21.6,22.2Z"/>
      <path class="st7" d="M1592.6,169.1h81.8l-40.9,42.3-40.9-42.3Z"/>
      <path class="st7" d="M1756.3,0v41.4h-41.8v43.2h-40V0h81.8Z"/>
      <path d="M1736.4,20.5h-42.1v43.5h42.1V20.5Z"/>
      <path class="st0" d="M1715.4,20.5h-21v21.7h21v-21.7Z"/>
      <path class="st0" d="M1756.3,84.6h-81.8v84.6h81.8v-84.6Z"/>
      <path class="st7" d="M1756.6,105.7h-61.7v42.3h61.7v-42.3Z"/>
      <path class="st5" d="M1694.9,148c11.3,0,20.4-9.5,20.4-21.1s-9.2-21.1-20.4-21.1-20.5,9.5-20.5,21.1,9.2,21.1,20.5,21.1Z"/>
      <path d="M1722.6,135.1c4.4-4.1,4.8-11.2.8-15.8s-10.8-4.9-15.3-.8c-4.4,4.1-4.8,11.2-.8,15.8,4,4.6,10.8,4.9,15.3.8Z"/>
      <path d="M1838.1,126.9v42.1h-40.9v-.8c0-22.7,17.9-41.3,39.9-41.3s.7,0,1,0Z"/>
      <path class="st5" d="M1809.1,85.1v54h-52.4v-1.1c0-29.2,22.9-52.9,51.2-52.9s.8,0,1.2,0h0Z"/>
      <path class="st7" d="M1920,169.1h-81.8v84.6h81.8v-84.6Z"/>
      <path class="st0" d="M1838.1,253.5v-84.2h81.9v1.7c0,45.6-35.8,82.6-80,82.6s-1.3,0-1.9,0h0Z"/>
      <path class="st7" d="M1838.1,233.6v-64.4h62.6v1.3c0,34.9-27.4,63.2-61.2,63.2s-1,0-1.5,0h0Z"/>
      <path d="M1838.1,213.4v-44.2h42.9v.9c0,24-18.8,43.3-41.9,43.3s-.7,0-1,0Z"/>
      <path class="st5" d="M1920,253.7h-81.8v84.6h81.8v-84.6Z"/>
      <path class="st7" d="M1918.7,313.2c-31.2,0-56.4-26.1-56.4-58.3s0-.9,0-1.4h18.1v1c0,22,17.3,40,38.7,40s.5,0,.8,0v18.7h-1.2Z"/>
      <path class="st0" d="M1839.3,278.6c31.2,0,56.4,26.1,56.4,58.3s0,.9,0,1.4h-18.1v-1c0-22-17.3-40-38.7-40s-.5,0-.8,0v-18.7h1.2Z"/>
      <path class="st5" d="M1756.3,84.6h81.8V0h-81.8v84.6Z"/>
      <path d="M1792.5,37.3c6.3-6.5,6.3-17.1,0-23.6-6.3-6.5-16.5-6.5-22.8,0s-6.3,17.1,0,23.6c6.3,6.5,16.5,6.5,22.8,0Z"/>
      <path class="st7" d="M1823,39c7.2-5.5,8.6-16,3.3-23.4-5.3-7.3-15.4-9-22.6-3.4s-8.6,16-3.3,23.4c5.3,7.3,15.5,9,22.6,3.4Z"/>
      <path class="st0" d="M1792.5,70.8c6.3-6.5,6.3-17.1,0-23.6-6.3-6.5-16.5-6.5-22.8,0s-6.3,17.1,0,23.6c6.3,6.5,16.5,6.5,22.8,0Z"/>
      <path d="M1823,72.3c7.2-5.5,8.6-16,3.3-23.4-5.3-7.3-15.4-9-22.6-3.4-7.2,5.5-8.6,16-3.3,23.4,5.3,7.3,15.5,9,22.6,3.4Z"/>
      <path class="st7" d="M1858.6,0h-20.4v21.1h20.4V0Z"/>
      <path d="M1879.1,21h-20.4v21.1h20.4v-21.1Z"/>
      <path d="M1879.1,63.3h-20.4v21.1h20.4v-21.1Z"/>
      <path class="st7" d="M1899.5,42.2h-20.4v21.1h20.4v-21.1Z"/>
      <path class="st7" d="M1858.6,42.2h-20.4v21.1h20.4v-21.1Z"/>
      <path class="st7" d="M1899.5,0h-20.4v21.1h20.4V0Z"/>
      <path d="M1920,63.3h-20.4v21.1h20.4v-21.1Z"/>
      <path d="M1920,21h-20.4v21.1h20.4v-21.1Z"/>
      <path class="st7" d="M1756.3,338.2h81.8v-84.6h-81.8v84.6Z"/>
      <path class="st0" d="M1822.3,321.8c-8.2,2.3-17,1.8-25.1-1.3-5.3-2-10.2-5.2-14.5-9.7-4.2-4.4-7.4-9.5-9.3-15-3-8.3-3.4-17.4-1.2-25.9,8.2-2.3,17-1.8,25.1,1.3,5.3,2,10.2,5.2,14.5,9.7,4.2,4.4,7.4,9.5,9.3,15,3,8.3,3.5,17.4,1.2,25.9Z"/>
      <path d="M1821,295.9c-2-5.4-5.1-10.6-9.3-15-4.2-4.4-9.2-7.6-14.5-9.7,8-3.1,16.8-3.5,25.1-1.3,2.2,8.6,1.8,17.6-1.2,25.9h0Z"/>
      <path d="M1797.2,320.5c-8,3.1-16.8,3.5-25.1,1.3-2.2-8.6-1.8-17.6,1.2-25.9,2,5.4,5.1,10.6,9.3,15,4.2,4.4,9.2,7.6,14.5,9.7h0Z"/>
      <path class="st5" d="M1821,295.9c-2,5.4-5.1,10.6-9.3,15-4.2,4.4-9.2,7.6-14.5,9.7-5.3-2-10.2-5.2-14.5-9.7-4.2-4.4-7.4-9.5-9.3-15,2-5.4,5.1-10.6,9.3-15,4.2-4.4,9.2-7.6,14.5-9.7,5.3,2,10.2,5.2,14.5,9.7,4.2,4.4,7.4,9.5,9.3,15Z"/>
      <path class="st0" d="M1592.6,84.6h81.8V0h-81.8v84.6Z"/>
      <path class="st7" d="M1633.6,84.6c22.6,0,40.9-18.9,40.9-42.3S1656.2,0,1633.6,0s-40.9,18.9-40.9,42.3,18.3,42.3,40.9,42.3Z"/>
      <path class="st5" d="M1648,57.2c8-8.3,8-21.6,0-29.9s-21-8.3-29,0-8,21.6,0,29.9,21,8.3,29,0Z"/>
      <path class="st7" d="M1756.3,169.1h-81.8v84.6h81.8v-84.6Z"/>
      <path d="M1756.3,177.1v-8c-22.6,0-40.9,18.9-40.9,42.3s18.4,42.3,40.9,42.3v-8c-18.3,0-33.2-15.4-33.2-34.3s14.9-34.3,33.2-34.3Z"/>
      <path d="M1756.3,192.6v-8c-14.3,0-25.9,12-25.9,26.8s11.6,26.8,25.9,26.8v-8c-10.1,0-18.2-8.5-18.2-18.8s8.2-18.8,18.2-18.8h0Z"/>
      <path d="M1756.3,207.2v-8c-6.4,0-11.7,5.4-11.7,12.1s5.2,12.1,11.7,12.1v-8c-2.2,0-4-1.8-4-4.1s1.8-4.1,4-4.1h0Z"/>
      <path class="st0" d="M1674.5,169.1v84.6c22.6,0,40.9-18.9,40.9-42.3s-18.3-42.3-40.9-42.3Z"/>
      <path class="st0" d="M1592.6,338.2h81.8v-84.6h-81.8v84.6Z"/>
      <path class="st5" d="M1633.6,338.2v-84.6c-22.6,0-40.9,18.9-40.9,42.3s18.3,42.3,40.9,42.3Z"/>
      <path class="st7" d="M1633.6,253.7l40.9,42.3-40.9,42.3v-84.6Z"/>
      <path class="st0" d="M1838.1,169.1h-81.8v84.6h81.8v-84.6Z"/>
      <path class="st7" d="M1838.1,211.4h-81.8c0,23.4,18.3,42.3,40.9,42.3s40.9-18.9,40.9-42.3Z"/>
      <path class="st5" d="M1797.2,169.1v42.3h40.9c0-23.4-18.3-42.3-40.9-42.3Z"/>
      <path d="M1808.7,213.4c1.1-6.5-3.2-12.8-9.5-13.9-6.4-1.1-12.4,3.3-13.5,9.9s3.2,12.8,9.5,13.9c6.4,1.1,12.4-3.3,13.5-9.9Z"/>
    </g>
  </g>
  <g>
    <g class="st8">
      <g>
        <path class="st3" d="M504,0H0v336h504V0Z"/>
        <path class="st7" d="M420,336h84v-84h-84v84Z"/>
        <path class="st0" d="M420,252v84c23.2,0,42-18.8,42-42s-18.8-42-42-42Z"/>
        <path class="st5" d="M504,336v-84c-23.2,0-42,18.8-42,42s18.8,42,42,42Z"/>
        <path d="M490.6,319.2c-9-4.8-15.1-14.3-15.1-25.2s6.1-20.4,15.1-25.2v50.4h0Z"/>
        <path class="st5" d="M84,0H0v84h84V0Z"/>
        <path d="M42,0v84c23.2,0,42-18.8,42-42S65.2,0,42,0Z"/>
        <path class="st0" d="M0,0v84c23.2,0,42-18.8,42-42S23.2,0,0,0Z"/>
        <path d="M126,126h-42v42h42v-42Z"/>
        <path d="M168,84h-42v42h42v-42Z"/>
        <path class="st0" d="M153.7,126c0,15.3-12.4,27.7-27.7,27.7v-27.7h27.7Z"/>
        <path class="st0" d="M126,98.3v27.7h-27.7c0-15.3,12.4-27.7,27.7-27.7Z"/>
        <path class="st7" d="M98.3,126h27.7v27.7c-15.3,0-27.7-12.4-27.7-27.7Z"/>
        <path class="st7" d="M153.7,126h-27.7v-27.7c15.3,0,27.7,12.4,27.7,27.7Z"/>
        <path class="st7" d="M196,336v-42l-28,21,28,21Z"/>
        <path class="st7" d="M224,336v-42l-28,21,28,21Z"/>
        <path class="st5" d="M252,336v-42l-28,21,28,21Z"/>
        <path class="st0" d="M224,252v42l28-21-28-21Z"/>
        <path class="st0" d="M196,252v42l28-21-28-21Z"/>
        <path class="st5" d="M168,252v42l28-21-28-21Z"/>
        <path class="st7" d="M0,294l42,42v-42H0Z"/>
        <path class="st0" d="M21,273l42,42v-42H21Z"/>
        <path class="st5" d="M42,252l42,42v-42h-42Z"/>
        <path class="st5" d="M420,84h-84v84h84v-84Z"/>
        <path class="st7" d="M420,126l-42-42v42h42Z"/>
        <path class="st0" d="M399,147l-42-42v42h42Z"/>
        <path class="st0" d="M378,168l-42-42v42h42Z"/>
        <path class="st7" d="M84,84v84H0v-42l42-42h42Z"/>
        <path class="st5" d="M42,126L0,168h42v-42Z"/>
        <path class="st5" d="M84,126l-42,42h42v-42Z"/>
        <path class="st0" d="M42,126l42-42h-42v42Z"/>
        <path class="st0" d="M84,168H0v84h84v-84Z"/>
        <path class="st7" d="M63,252H0v-21l21-21,42,42Z"/>
        <path class="st5" d="M84,252H0l42-42,42,42Z"/>
        <path d="M84,231v21H21l42-42,21,21Z"/>
        <path class="st5" d="M84,252h84v-84h-84v84Z"/>
        <path class="st0" d="M126,232.1c12.2,0,22.1-9.9,22.1-22.1s-9.9-22.1-22.1-22.1-22.1,9.9-22.1,22.1,9.9,22.1,22.1,22.1Z"/>
        <path class="st7" d="M84,168h84l-42,42-42-42Z"/>
        <path class="st0" d="M420,84h84V0h-84v84Z"/>
        <path class="st5" d="M504,84h-84c23.2-22.4,60.8-22.4,84,0Z"/>
        <path class="st7" d="M504,67.2h-84c23.2-22.4,60.8-22.4,84,0Z"/>
        <path class="st5" d="M504,50.4h-84c23.2-22.4,60.8-22.4,84,0Z"/>
        <path class="st7" d="M504,33.5h-84c23.2-22.4,60.8-22.4,84,0Z"/>
        <path class="st5" d="M504,16.7h-84c23.2-22.4,60.8-22.4,84,0Z"/>
        <path class="st7" d="M252,0v41.1h-42.9v42.9h-41.1V0h84Z"/>
        <path d="M231.6,20.4h-43.2v43.2h43.2V20.4Z"/>
        <path class="st0" d="M210,20.4h-21.6v21.6h21.6v-21.6Z"/>
        <path class="st0" d="M252,84h-84v84h84v-84Z"/>
        <path class="st7" d="M252.3,105h-63.3v42h63.3v-42Z"/>
        <path class="st5" d="M189,147c11.6,0,21-9.4,21-21s-9.4-21-21-21-21,9.4-21,21,9.4,21,21,21Z"/>
        <path d="M217.4,134.2c4.6-4.1,4.9-11.1.8-15.7-4.1-4.6-11.1-4.9-15.7-.8-4.6,4.1-4.9,11.1-.8,15.7,4.1,4.6,11.1,4.9,15.7.8Z"/>
        <path d="M336,126.1v41.8h-42v-.8c0-22.6,18.4-41,41-41s.7,0,1,0Z"/>
        <path class="st5" d="M306.1,84.5v53.6h-53.8v-1.1c0-29,23.5-52.6,52.6-52.6s.9,0,1.3,0h0Z"/>
        <path class="st7" d="M420,168h-84v84h84v-84Z"/>
        <path class="st0" d="M335.9,251.8v-83.7h84.1v1.7c0,45.3-36.8,82.1-82.1,82.1s-1.3,0-2,0h0Z"/>
        <path class="st7" d="M335.9,232.1v-64h64.3v1.3c0,34.7-28.1,62.8-62.8,62.8s-1,0-1.5,0h0Z"/>
        <path d="M335.9,212v-43.9h44.1v.9c0,23.8-19.3,43-43,43s-.7,0-1,0h-.1Z"/>
        <path class="st5" d="M420,252h-84v84h84v-84Z"/>
        <path class="st7" d="M418.7,311.2c-32,0-57.9-25.9-57.9-57.9s0-.9,0-1.4h18.6v1c0,21.9,17.8,39.7,39.7,39.7s.5,0,.8,0v18.6h-1.2Z"/>
        <path class="st0" d="M337.2,276.8c32,0,57.9,25.9,57.9,57.9s0,.9,0,1.4h-18.6v-1c0-21.9-17.8-39.7-39.7-39.7s-.5,0-.8,0v-18.6h1.2Z"/>
        <path class="st5" d="M252,84h84V0h-84v84Z"/>
        <path d="M289.1,37.1c6.5-6.5,6.5-17,0-23.4-6.5-6.5-17-6.5-23.4,0-6.5,6.5-6.5,17,0,23.4,6.5,6.5,17,6.5,23.4,0Z"/>
        <path class="st7" d="M320.5,38.7c7.3-5.5,8.9-15.9,3.4-23.2-5.5-7.3-15.9-8.9-23.2-3.4-7.3,5.5-8.9,15.9-3.4,23.2,5.5,7.3,15.9,8.9,23.2,3.4Z"/>
        <path class="st0" d="M289.1,70.3c6.5-6.5,6.5-17,0-23.4-6.5-6.5-17-6.5-23.4,0-6.5,6.5-6.5,17,0,23.4,6.5,6.5,17,6.5,23.4,0Z"/>
        <path d="M320.5,71.8c7.3-5.5,8.9-15.9,3.4-23.2s-15.9-8.9-23.2-3.4-8.9,15.9-3.4,23.2,15.9,8.9,23.2,3.4Z"/>
        <path class="st7" d="M357,0h-21v21h21V0Z"/>
        <path d="M378,20.9h-21v21h21v-21Z"/>
        <path d="M378,62.9h-21v21h21v-21Z"/>
        <path class="st7" d="M399,41.9h-21v21h21v-21Z"/>
        <path class="st7" d="M357,41.9h-21v21h21v-21Z"/>
        <path class="st7" d="M399,0h-21v21h21V0Z"/>
        <path d="M420,62.9h-21v21h21v-21Z"/>
        <path d="M420,20.9h-21v21h21v-21Z"/>
        <path class="st7" d="M252,336h84v-84h-84v84Z"/>
        <path class="st0" d="M319.7,319.7c-8.5,2.3-17.5,1.8-25.7-1.3-5.4-2-10.5-5.2-14.9-9.6s-7.6-9.4-9.6-14.9c-3.1-8.2-3.5-17.3-1.3-25.7,8.5-2.3,17.5-1.8,25.7,1.3,5.4,2,10.5,5.2,14.9,9.6s7.6,9.4,9.6,14.9c3.1,8.2,3.5,17.3,1.3,25.7Z"/>
        <path d="M318.4,294c-2-5.4-5.2-10.5-9.6-14.9s-9.4-7.6-14.9-9.6c8.2-3.1,17.3-3.5,25.7-1.3,2.3,8.5,1.8,17.5-1.3,25.7h0Z"/>
        <path d="M294,318.4c-8.2,3.1-17.3,3.5-25.7,1.3-2.3-8.5-1.8-17.5,1.3-25.7,2,5.4,5.2,10.5,9.6,14.9s9.4,7.6,14.9,9.6h0Z"/>
        <path class="st5" d="M318.4,294c-2,5.4-5.2,10.5-9.6,14.9s-9.4,7.6-14.9,9.6c-5.4-2-10.5-5.2-14.9-9.6s-7.6-9.4-9.6-14.9c2-5.4,5.2-10.5,9.6-14.9s9.4-7.6,14.9-9.6c5.4,2,10.5,5.2,14.9,9.6s7.6,9.4,9.6,14.9Z"/>
        <path d="M485,84.5h-46.1v64.5h46.1v-64.5Z"/>
        <path class="st5" d="M462,116.7c12.7,0,23,10.3,23,23v9.2h-46.1v-9.2c0-12.7,10.3-23,23-23h.1Z"/>
        <path class="st0" d="M84,84h84V0h-84v84Z"/>
        <path class="st7" d="M126,84c23.2,0,42-18.8,42-42S149.2,0,126,0s-42,18.8-42,42,18.8,42,42,42Z"/>
        <path class="st5" d="M140.9,56.8c8.2-8.2,8.2-21.5,0-29.7s-21.5-8.2-29.7,0-8.2,21.5,0,29.7,21.5,8.2,29.7,0Z"/>
        <path class="st7" d="M252,168h-84v84h84v-84Z"/>
        <path d="M252,175.9v-7.9c-23.2,0-42,18.8-42,42s18.8,42,42,42v-7.9c-18.8,0-34.1-15.3-34.1-34.1s15.3-34.1,34.1-34.1Z"/>
        <path d="M252,191.3v-7.9c-14.7,0-26.6,11.9-26.6,26.6s11.9,26.6,26.6,26.6v-7.9c-10.3,0-18.7-8.4-18.7-18.7s8.4-18.7,18.7-18.7h0Z"/>
        <path d="M252,205.9v-7.9c-6.6,0-12,5.4-12,12s5.4,12,12,12v-7.9c-2.3,0-4.1-1.8-4.1-4.1s1.8-4.1,4.1-4.1h0Z"/>
        <path class="st0" d="M168,168v84c23.2,0,42-18.8,42-42s-18.8-42-42-42Z"/>
        <path class="st0" d="M84,336h84v-84h-84v84Z"/>
        <path class="st5" d="M126,336v-84c-23.2,0-42,18.8-42,42s18.8,42,42,42Z"/>
        <path class="st7" d="M126,252l42,42-42,42v-84Z"/>
        <path class="st5" d="M420,252h84v-84h-84v84Z"/>
        <path d="M462,180.6h29.4v29.4c0,16.2-13.2,29.4-29.4,29.4s-29.4-13.2-29.4-29.4,13.2-29.4,29.4-29.4Z"/>
        <path class="st0" d="M471.5,222.5c6.9-5.2,8.3-15.1,3.1-22-5.2-6.9-15.1-8.3-22-3.1s-8.3,15.1-3.1,22c5.2,6.9,15.1,8.3,22,3.1Z"/>
        <path class="st0" d="M336,168h-84v84h84v-84Z"/>
        <path class="st7" d="M336,210h-84c0,23.2,18.8,42,42,42s42-18.8,42-42Z"/>
        <path class="st5" d="M294,168v42h42c0-23.2-18.8-42-42-42Z"/>
        <path d="M305.8,212c1.1-6.5-3.3-12.7-9.8-13.8s-12.7,3.3-13.8,9.8c-1.1,6.5,3.3,12.7,9.8,13.8s12.7-3.3,13.8-9.8Z"/>
      </g>
    </g>
    <g class="st4">
      <g>
        <path class="st3" d="M1008,0h-504v336h504V0Z"/>
        <path class="st7" d="M924,336h84v-84h-84v84Z"/>
        <path class="st0" d="M924,252v84c23.2,0,42-18.8,42-42s-18.8-42-42-42Z"/>
        <path class="st5" d="M1008,336v-84c-23.2,0-42,18.8-42,42s18.8,42,42,42Z"/>
        <path d="M994.6,319.2c-9-4.8-15.1-14.3-15.1-25.2s6.1-20.4,15.1-25.2v50.4h0Z"/>
        <path class="st5" d="M588,0h-84v84h84V0Z"/>
        <path d="M546,0v84c23.2,0,42-18.8,42-42S569.2,0,546,0Z"/>
        <path class="st0" d="M504,0v84c23.2,0,42-18.8,42-42S527.2,0,504,0Z"/>
        <path d="M630,126h-42v42h42v-42Z"/>
        <path d="M672,84h-42v42h42v-42Z"/>
        <path class="st0" d="M657.7,126c0,15.3-12.4,27.7-27.7,27.7v-27.7h27.7Z"/>
        <path class="st0" d="M630,98.3v27.7h-27.7c0-15.3,12.4-27.7,27.7-27.7Z"/>
        <path class="st7" d="M602.3,126h27.7v27.7c-15.3,0-27.7-12.4-27.7-27.7Z"/>
        <path class="st7" d="M657.7,126h-27.7v-27.7c15.3,0,27.7,12.4,27.7,27.7Z"/>
        <path class="st7" d="M700,336v-42l-28,21,28,21Z"/>
        <path class="st7" d="M728,336v-42l-28,21,28,21Z"/>
        <path class="st5" d="M756,336v-42l-28,21,28,21Z"/>
        <path class="st0" d="M728,252v42l28-21-28-21Z"/>
        <path class="st0" d="M700,252v42l28-21-28-21Z"/>
        <path class="st5" d="M672,252v42l28-21-28-21Z"/>
        <path class="st7" d="M504,294l42,42v-42h-42Z"/>
        <path class="st0" d="M525,273l42,42v-42h-42Z"/>
        <path class="st5" d="M546,252l42,42v-42h-42Z"/>
        <path class="st5" d="M924,84h-84v84h84v-84Z"/>
        <path class="st7" d="M924,126l-42-42v42h42Z"/>
        <path class="st0" d="M903,147l-42-42v42h42Z"/>
        <path class="st0" d="M882,168l-42-42v42h42Z"/>
        <path class="st7" d="M588,84v84h-84v-42l42-42h42Z"/>
        <path class="st5" d="M546,126l-42,42h42v-42Z"/>
        <path class="st5" d="M588,126l-42,42h42v-42Z"/>
        <path class="st0" d="M546,126l42-42h-42v42Z"/>
        <path class="st0" d="M588,168h-84v84h84v-84Z"/>
        <path class="st7" d="M567,252h-63v-21l21-21,42,42Z"/>
        <path class="st5" d="M588,252h-84l42-42,42,42Z"/>
        <path d="M588,231v21h-63l42-42,21,21Z"/>
        <path class="st5" d="M588,252h84v-84h-84v84Z"/>
        <path class="st0" d="M630,232.1c12.2,0,22.1-9.9,22.1-22.1s-9.9-22.1-22.1-22.1-22.1,9.9-22.1,22.1,9.9,22.1,22.1,22.1Z"/>
        <path class="st7" d="M588,168h84l-42,42-42-42Z"/>
        <path class="st0" d="M924,84h84V0h-84v84Z"/>
        <path class="st5" d="M1008,84h-84c23.2-22.4,60.8-22.4,84,0Z"/>
        <path class="st7" d="M1008,67.2h-84c23.2-22.4,60.8-22.4,84,0Z"/>
        <path class="st5" d="M1008,50.4h-84c23.2-22.4,60.8-22.4,84,0Z"/>
        <path class="st7" d="M1008,33.5h-84c23.2-22.4,60.8-22.4,84,0Z"/>
        <path class="st5" d="M1008,16.7h-84c23.2-22.4,60.8-22.4,84,0Z"/>
        <path class="st7" d="M756,0v41.1h-42.9v42.9h-41.1V0h84Z"/>
        <path d="M735.6,20.4h-43.2v43.2h43.2V20.4Z"/>
        <path class="st0" d="M714,20.4h-21.6v21.6h21.6v-21.6Z"/>
        <path class="st0" d="M756,84h-84v84h84v-84Z"/>
        <path class="st7" d="M756.3,105h-63.3v42h63.3v-42Z"/>
        <path class="st5" d="M693,147c11.6,0,21-9.4,21-21s-9.4-21-21-21-21,9.4-21,21,9.4,21,21,21Z"/>
        <path d="M721.4,134.2c4.6-4.1,4.9-11.1.8-15.7-4.1-4.6-11.1-4.9-15.7-.8-4.6,4.1-4.9,11.1-.8,15.7,4.1,4.6,11.1,4.9,15.7.8Z"/>
        <path d="M840,126.1v41.8h-42v-.8c0-22.6,18.4-41,41-41s.7,0,1,0Z"/>
        <path class="st5" d="M810.1,84.5v53.6h-53.8v-1.1c0-29,23.5-52.6,52.6-52.6s.9,0,1.3,0h0Z"/>
        <path class="st7" d="M924,168h-84v84h84v-84Z"/>
        <path class="st0" d="M839.9,251.8v-83.7h84.1v1.7c0,45.3-36.8,82.1-82.1,82.1s-1.3,0-2,0h0Z"/>
        <path class="st7" d="M839.9,232.1v-64h64.3v1.3c0,34.7-28.1,62.8-62.8,62.8s-1,0-1.5,0h0Z"/>
        <path d="M839.9,212v-43.9h44.1v.9c0,23.8-19.3,43-43,43s-.7,0-1,0h0Z"/>
        <path class="st5" d="M924,252h-84v84h84v-84Z"/>
        <path class="st7" d="M922.7,311.2c-32,0-57.9-25.9-57.9-57.9s0-.9,0-1.4h18.6v1c0,21.9,17.8,39.7,39.7,39.7s.5,0,.8,0v18.6h-1.2,0Z"/>
        <path class="st0" d="M841.2,276.8c32,0,57.9,25.9,57.9,57.9s0,.9,0,1.4h-18.6v-1c0-21.9-17.8-39.7-39.7-39.7s-.5,0-.8,0v-18.6h1.2,0Z"/>
        <path class="st5" d="M756,84h84V0h-84v84Z"/>
        <path d="M793.1,37.1c6.5-6.5,6.5-17,0-23.4-6.5-6.5-17-6.5-23.4,0-6.5,6.5-6.5,17,0,23.4,6.5,6.5,17,6.5,23.4,0Z"/>
        <path class="st7" d="M824.5,38.7c7.3-5.5,8.9-15.9,3.4-23.2-5.5-7.3-15.9-8.9-23.2-3.4s-8.9,15.9-3.4,23.2c5.5,7.3,15.9,8.9,23.2,3.4Z"/>
        <path class="st0" d="M793.1,70.3c6.5-6.5,6.5-17,0-23.4-6.5-6.5-17-6.5-23.4,0-6.5,6.5-6.5,17,0,23.4,6.5,6.5,17,6.5,23.4,0Z"/>
        <path d="M824.5,71.8c7.3-5.5,8.9-15.9,3.4-23.2s-15.9-8.9-23.2-3.4c-7.3,5.5-8.9,15.9-3.4,23.2s15.9,8.9,23.2,3.4Z"/>
        <path class="st7" d="M861,0h-21v21h21V0Z"/>
        <path d="M882,20.9h-21v21h21v-21Z"/>
        <path d="M882,62.9h-21v21h21v-21Z"/>
        <path class="st7" d="M903,41.9h-21v21h21v-21Z"/>
        <path class="st7" d="M861,41.9h-21v21h21v-21Z"/>
        <path class="st7" d="M903,0h-21v21h21V0Z"/>
        <path d="M924,62.9h-21v21h21v-21Z"/>
        <path d="M924,20.9h-21v21h21v-21Z"/>
        <path class="st7" d="M756,336h84v-84h-84v84Z"/>
        <path class="st0" d="M823.7,319.7c-8.5,2.3-17.5,1.8-25.7-1.3-5.4-2-10.5-5.2-14.9-9.6s-7.6-9.4-9.6-14.9c-3.1-8.2-3.5-17.3-1.3-25.7,8.5-2.3,17.5-1.8,25.7,1.3,5.4,2,10.5,5.2,14.9,9.6s7.6,9.4,9.6,14.9c3.1,8.2,3.5,17.3,1.3,25.7Z"/>
        <path d="M822.4,294c-2-5.4-5.2-10.5-9.6-14.9-4.4-4.4-9.4-7.6-14.9-9.6,8.2-3.1,17.3-3.5,25.7-1.3,2.3,8.5,1.8,17.5-1.3,25.7h0Z"/>
        <path d="M798,318.4c-8.2,3.1-17.3,3.5-25.7,1.3-2.3-8.5-1.8-17.5,1.3-25.7,2,5.4,5.2,10.5,9.6,14.9,4.4,4.4,9.4,7.6,14.9,9.6h0Z"/>
        <path class="st5" d="M822.4,294c-2,5.4-5.2,10.5-9.6,14.9-4.4,4.4-9.4,7.6-14.9,9.6-5.4-2-10.5-5.2-14.9-9.6s-7.6-9.4-9.6-14.9c2-5.4,5.2-10.5,9.6-14.9,4.4-4.4,9.4-7.6,14.9-9.6,5.4,2,10.5,5.2,14.9,9.6s7.6,9.4,9.6,14.9Z"/>
        <path d="M989,84.5h-46.1v64.5h46.1v-64.5Z"/>
        <path class="st5" d="M966,116.7c12.7,0,23,10.3,23,23v9.2h-46.1v-9.2c0-12.7,10.3-23,23-23h0Z"/>
        <path class="st0" d="M588,84h84V0h-84v84Z"/>
        <path class="st7" d="M630,84c23.2,0,42-18.8,42-42S653.2,0,630,0s-42,18.8-42,42,18.8,42,42,42Z"/>
        <path class="st5" d="M644.9,56.8c8.2-8.2,8.2-21.5,0-29.7s-21.5-8.2-29.7,0-8.2,21.5,0,29.7,21.5,8.2,29.7,0Z"/>
        <path class="st7" d="M756,168h-84v84h84v-84Z"/>
        <path d="M756,175.9v-7.9c-23.2,0-42,18.8-42,42s18.8,42,42,42v-7.9c-18.8,0-34.1-15.3-34.1-34.1s15.3-34.1,34.1-34.1Z"/>
        <path d="M756,191.3v-7.9c-14.7,0-26.6,11.9-26.6,26.6s11.9,26.6,26.6,26.6v-7.9c-10.3,0-18.7-8.4-18.7-18.7s8.4-18.7,18.7-18.7h0Z"/>
        <path d="M756,205.9v-7.9c-6.6,0-12,5.4-12,12s5.4,12,12,12v-7.9c-2.3,0-4.1-1.8-4.1-4.1s1.8-4.1,4.1-4.1h0Z"/>
        <path class="st0" d="M672,168v84c23.2,0,42-18.8,42-42s-18.8-42-42-42Z"/>
        <path class="st0" d="M588,336h84v-84h-84v84Z"/>
        <path class="st5" d="M630,336v-84c-23.2,0-42,18.8-42,42s18.8,42,42,42Z"/>
        <path class="st7" d="M630,252l42,42-42,42v-84Z"/>
        <path class="st5" d="M924,252h84v-84h-84v84Z"/>
        <path d="M966,180.6h29.4v29.4c0,16.2-13.2,29.4-29.4,29.4s-29.4-13.2-29.4-29.4,13.2-29.4,29.4-29.4Z"/>
        <path class="st0" d="M975.5,222.5c6.9-5.2,8.3-15.1,3.1-22s-15.1-8.3-22-3.1-8.3,15.1-3.1,22,15.1,8.3,22,3.1Z"/>
        <path class="st0" d="M840,168h-84v84h84v-84Z"/>
        <path class="st7" d="M840,210h-84c0,23.2,18.8,42,42,42s42-18.8,42-42Z"/>
        <path class="st5" d="M798,168v42h42c0-23.2-18.8-42-42-42Z"/>
        <path d="M809.8,212c1.1-6.5-3.3-12.7-9.8-13.8s-12.7,3.3-13.8,9.8,3.3,12.7,9.8,13.8,12.7-3.3,13.8-9.8Z"/>
      </g>
    </g>
    <rect class="st6" x=".4" width="1919.2" height="336"/>
  </g>
</svg>