<svg width="1920" height="336" viewBox="0 0 1920 336" fill="none" xmlns="http://www.w3.org/2000/svg">
<g clip-path="url(#clip0_57_649)">
<path d="M504 -0.0537109H0V335.946H504V-0.0537109Z" fill="#FFF4E7"/>
<path d="M420 335.98H504V251.98H420V335.98Z" fill="#008024"/>
<path d="M420 251.98V335.98C443.197 335.98 462 317.177 462 293.98C462 270.782 443.197 251.98 420 251.98Z" fill="white"/>
<path d="M504 335.98V251.98C480.803 251.98 462 270.782 462 293.98C462 317.177 480.803 335.98 504 335.98Z" fill="#800000"/>
<path d="M490.56 319.173C481.569 314.355 475.44 304.873 475.44 293.98C475.44 283.087 481.569 273.598 490.56 268.786V319.18V319.173Z" fill="black"/>
<path d="M84 -0.0202637H0V83.9797H84V-0.0202637Z" fill="#800000"/>
<path d="M42 -0.0202637V83.9797C65.1974 83.9797 84 65.1772 84 41.9797C84 18.7823 65.1974 -0.0202637 42 -0.0202637Z" fill="black"/>
<path d="M0 -0.0202637V83.9797C23.1974 83.9797 42 65.1772 42 41.9797C42 18.7823 23.1974 -0.0202637 0 -0.0202637Z" fill="white"/>
<path d="M126 125.98H84V167.98H126V125.98Z" fill="black"/>
<path d="M168 83.9797H126V125.98H168V83.9797Z" fill="black"/>
<path d="M153.693 125.98C153.693 141.274 141.295 153.673 126 153.673V125.98H153.693Z" fill="white"/>
<path d="M126 98.2866V125.98H98.3069C98.3069 110.685 110.705 98.2866 126 98.2866Z" fill="white"/>
<path d="M98.3069 125.98H126V153.673C110.705 153.673 98.3069 141.274 98.3069 125.98Z" fill="#008024"/>
<path d="M153.693 125.98H126V98.2866C141.295 98.2866 153.693 110.685 153.693 125.98Z" fill="#008024"/>
<path d="M196.002 335.98V293.98L168 314.98L196.002 335.98Z" fill="#008024"/>
<path d="M223.998 335.98V293.98L196.002 314.98L223.998 335.98Z" fill="#008024"/>
<path d="M252 335.98V293.98L223.998 314.98L252 335.98Z" fill="#800000"/>
<path d="M223.998 251.98V293.98L252 272.98L223.998 251.98Z" fill="white"/>
<path d="M196.002 251.98V293.98L223.998 272.98L196.002 251.98Z" fill="white"/>
<path d="M168 251.98V293.98L196.002 272.98L168 251.98Z" fill="#800000"/>
<path d="M0 293.98L42 335.98V293.98H0Z" fill="#008024"/>
<path d="M21 272.98L63 314.98V272.98H21Z" fill="white"/>
<path d="M42 251.98L84 293.98V251.98H42Z" fill="#800000"/>
<path d="M420 83.9797H336V167.98H420V83.9797Z" fill="#800000"/>
<path d="M420 125.98L378 83.9797V125.98H420Z" fill="#008024"/>
<path d="M399 146.98L357 104.98V146.98H399Z" fill="white"/>
<path d="M378 167.98L336 125.98V167.98H378Z" fill="white"/>
<path d="M84 83.9797V167.98H0V125.98L42 83.9797H84Z" fill="#008024"/>
<path d="M42 125.98L0 167.98H42V125.98Z" fill="#800000"/>
<path d="M84 125.98L42 167.98H84V125.98Z" fill="#800000"/>
<path d="M42 125.98L84 83.9797H42V125.98Z" fill="white"/>
<path d="M84 167.98H0V251.98H84V167.98Z" fill="white"/>
<path d="M63 251.98H0V230.98L21 209.98L63 251.98Z" fill="#008024"/>
<path d="M84 251.98H0L42 209.98L84 251.98Z" fill="#800000"/>
<path d="M84 230.98V251.98H21L63 209.98L84 230.98Z" fill="black"/>
<path d="M84 251.98H168V167.98H84L84 251.98Z" fill="#800000"/>
<path d="M126 232.115C138.225 232.115 148.136 222.205 148.136 209.98C148.136 197.754 138.225 187.844 126 187.844C113.775 187.844 103.864 197.754 103.864 209.98C103.864 222.205 113.775 232.115 126 232.115Z" fill="white"/>
<path d="M84 167.98H168L126 209.98L84 167.98Z" fill="#008024"/>
<path d="M420 83.9797L504 83.9797V-0.0202637L420 -0.0202637V83.9797Z" fill="white"/>
<path d="M504 83.9797H420C443.197 61.5618 480.803 61.5618 504 83.9797Z" fill="#800000"/>
<path d="M504 67.1665H420C443.197 44.7485 480.803 44.7485 504 67.1665Z" fill="#008024"/>
<path d="M504 50.353H420C443.197 27.9351 480.803 27.9351 504 50.353Z" fill="#800000"/>
<path d="M504 33.5395H420C443.197 11.1216 480.803 11.1216 504 33.5395Z" fill="#008024"/>
<path d="M504 16.726H420C443.197 -5.69188 480.803 -5.69188 504 16.726Z" fill="#800000"/>
<path d="M252 -0.0202637V41.0793H209.1V83.9797H168V-0.0202637H252Z" fill="#008024"/>
<path d="M231.605 20.3816H188.402V63.5845H231.605V20.3816Z" fill="black"/>
<path d="M210 20.3816H188.402V41.9797H210V20.3816Z" fill="white"/>
<path d="M252 83.9797H168V167.98H252V83.9797Z" fill="white"/>
<path d="M252.302 104.98H189V146.98H252.302V104.98Z" fill="#008024"/>
<path d="M189 146.98C200.598 146.98 210 137.578 210 125.98C210 114.382 200.598 104.98 189 104.98C177.402 104.98 168 114.382 168 125.98C168 137.578 177.402 146.98 189 146.98Z" fill="#800000"/>
<path d="M217.444 134.243C221.995 130.134 222.353 123.114 218.244 118.563C214.135 114.013 207.115 113.655 202.565 117.764C198.014 121.872 197.656 128.892 201.765 133.443C205.874 137.994 212.894 138.352 217.444 134.243Z" fill="black"/>
<path d="M336 126.148V167.98H294.013C294 167.698 294 167.415 294 167.133C294 144.487 312.359 126.135 334.999 126.135C335.335 126.135 335.664 126.135 336 126.148Z" fill="black"/>
<path d="M306.143 84.4906V138.116H252.316C252.302 137.753 252.302 137.397 252.302 137.034C252.302 108.004 275.836 84.4705 304.866 84.4705C305.29 84.4705 305.72 84.4772 306.143 84.4839V84.4906Z" fill="#800000"/>
<path d="M420 167.98H336V251.98H420V167.98Z" fill="#008024"/>
<path d="M335.919 251.812V168.067H419.973C420 168.632 420 169.196 420 169.761C420 215.094 383.248 251.845 337.915 251.845C337.25 251.845 336.585 251.832 335.919 251.819V251.812Z" fill="white"/>
<path d="M335.919 232.095V168.06H400.19C400.21 168.49 400.21 168.92 400.21 169.351C400.21 204.012 372.113 232.115 337.445 232.115C336.934 232.115 336.423 232.109 335.919 232.095Z" fill="#008024"/>
<path d="M335.919 211.982V168.06H380.003C380.016 168.356 380.016 168.652 380.016 168.947C380.016 192.723 360.743 211.996 336.968 211.996C336.618 211.996 336.269 211.989 335.919 211.982Z" fill="black"/>
<path d="M420 251.98H336V335.98H420V251.98Z" fill="#800000"/>
<path d="M418.696 311.25C386.716 311.25 360.797 285.331 360.797 253.351C360.797 252.88 360.797 252.41 360.81 251.939H379.371C379.371 252.262 379.358 252.585 379.358 252.907C379.358 274.841 397.139 292.622 419.073 292.622C419.348 292.622 419.617 292.622 419.893 292.609V311.23C419.489 311.25 419.093 311.25 418.696 311.25Z" fill="#008024"/>
<path d="M337.156 276.777C369.136 276.777 395.055 302.696 395.055 334.676C395.055 335.147 395.055 335.617 395.042 336.087H376.481C376.481 335.765 376.495 335.442 376.495 335.12C376.495 313.186 358.714 295.404 336.78 295.404C336.504 295.404 336.235 295.404 335.96 295.418V276.797C336.363 276.777 336.759 276.777 337.156 276.777Z" fill="white"/>
<path d="M252 83.9797L336 83.9797V-0.0202637L252 -0.0202637V83.9797Z" fill="#800000"/>
<path d="M289.147 37.1264C295.621 30.6522 295.621 20.1554 289.147 13.6812C282.673 7.20702 272.176 7.20702 265.702 13.6812C259.227 20.1554 259.227 30.6522 265.702 37.1264C272.176 43.6006 282.673 43.6006 289.147 37.1264Z" fill="black"/>
<path d="M320.477 38.6744C327.817 33.2013 329.331 22.8142 323.858 15.4742C318.385 8.13415 307.998 6.62068 300.657 12.0938C293.317 17.5668 291.804 27.9539 297.277 35.294C302.75 42.634 313.137 44.1474 320.477 38.6744Z" fill="#008024"/>
<path d="M289.146 70.2822C295.62 63.808 295.62 53.3112 289.146 46.837C282.672 40.3628 272.175 40.3628 265.701 46.837C259.226 53.3112 259.226 63.808 265.701 70.2822C272.175 76.7564 282.672 76.7564 289.146 70.2822Z" fill="white"/>
<path d="M320.48 71.8338C327.82 66.3607 329.333 55.9736 323.86 48.6336C318.387 41.2936 308 39.7801 300.66 45.2532C293.32 50.7263 291.806 61.1134 297.28 68.4534C302.753 75.7934 313.14 77.3069 320.48 71.8338Z" fill="black"/>
<path d="M356.98 -0.0202637H336V20.9596H356.98V-0.0202637Z" fill="#008024"/>
<path d="M378.034 20.8923H357.054V41.8722H378.034V20.8923Z" fill="black"/>
<path d="M378.034 62.8589H357.054V83.8387H378.034V62.8589Z" fill="black"/>
<path d="M399.014 41.8789H378.034V62.8587H399.014V41.8789Z" fill="#008024"/>
<path d="M357.047 41.8789H336.067V62.8587H357.047V41.8789Z" fill="#008024"/>
<path d="M399.014 -0.0874023H378.034V20.8924H399.014V-0.0874023Z" fill="#008024"/>
<path d="M420 62.8589H399.02V83.8387H420V62.8589Z" fill="black"/>
<path d="M420 20.8923H399.02V41.8722H420V20.8923Z" fill="black"/>
<path d="M252 335.98H336V251.98H252V335.98Z" fill="#008024"/>
<path d="M319.724 319.704C311.27 321.962 302.245 321.539 294 318.427C288.59 316.384 283.51 313.186 279.149 308.831C274.794 304.47 271.596 299.389 269.553 293.98C266.441 285.734 266.018 276.709 268.276 268.256C276.73 265.998 285.755 266.421 294 269.532C299.41 271.575 304.49 274.774 308.851 279.129C313.206 283.49 316.405 288.57 318.447 293.98C321.559 302.225 321.982 311.25 319.724 319.704Z" fill="white"/>
<path d="M318.447 293.98C316.404 288.57 313.206 283.49 308.851 279.129C304.49 274.774 299.41 271.575 294 269.532C302.245 266.421 311.27 265.998 319.724 268.256C321.982 276.709 321.559 285.734 318.447 293.98Z" fill="black"/>
<path d="M294 318.427C285.755 321.538 276.73 321.962 268.276 319.704C266.018 311.25 266.441 302.225 269.553 293.98C271.596 299.389 274.794 304.47 279.149 308.831C283.51 313.186 288.59 316.384 294 318.427Z" fill="black"/>
<path d="M318.447 293.98C316.405 299.389 313.206 304.47 308.851 308.831C304.49 313.186 299.41 316.384 294 318.427C288.59 316.384 283.51 313.186 279.149 308.831C274.794 304.47 271.596 299.389 269.553 293.98C271.596 288.57 274.794 283.49 279.149 279.129C283.51 274.774 288.59 271.575 294 269.532C299.41 271.575 304.49 274.774 308.851 279.129C313.206 283.49 316.405 288.57 318.447 293.98Z" fill="#800000"/>
<path d="M485.036 84.4705H438.964V149.016H485.036V84.4705Z" fill="black"/>
<path d="M462 116.747C474.714 116.747 485.036 127.069 485.036 139.783V149.016H438.964V139.783C438.964 127.069 449.286 116.747 462 116.747Z" fill="#800000"/>
<path d="M84 83.9797L168 83.9797V-0.0202637L84 -0.0202637L84 83.9797Z" fill="white"/>
<path d="M126 83.9797C149.196 83.9797 168 65.1757 168 41.9797C168 18.7838 149.196 -0.0202637 126 -0.0202637C102.804 -0.0202637 84 18.7838 84 41.9797C84 65.1757 102.804 83.9797 126 83.9797Z" fill="#008024"/>
<path d="M140.861 56.8435C149.069 48.6346 149.069 35.3254 140.861 27.1165C132.652 18.9076 119.342 18.9076 111.134 27.1165C102.925 35.3254 102.925 48.6346 111.134 56.8435C119.342 65.0524 132.652 65.0524 140.861 56.8435Z" fill="#800000"/>
<path d="M252 167.98H168V251.98H252V167.98Z" fill="#008024"/>
<path d="M252 175.896V167.98C228.836 167.98 210 186.816 210 209.98C210 233.144 228.836 251.98 252 251.98V244.064C233.204 244.064 217.916 228.776 217.916 209.98C217.916 191.184 233.204 175.896 252 175.896Z" fill="black"/>
<path d="M252 191.271V183.355C237.317 183.355 225.375 195.296 225.375 209.98C225.375 224.663 237.317 236.604 252 236.604V228.688C241.685 228.688 233.291 220.295 233.291 209.98C233.291 199.664 241.685 191.271 252 191.271Z" fill="black"/>
<path d="M252 205.901V197.985C245.387 197.985 240.011 203.367 240.011 209.973C240.011 216.579 245.394 221.962 252 221.962V214.045C249.749 214.045 247.921 212.218 247.921 209.966C247.921 207.715 249.749 205.887 252 205.887V205.901Z" fill="black"/>
<path d="M168 167.98V251.98C191.197 251.98 210 233.177 210 209.98C210 186.782 191.197 167.98 168 167.98Z" fill="white"/>
<path d="M84 335.98H168V251.98H84L84 335.98Z" fill="white"/>
<path d="M126 335.98V251.98C102.803 251.98 84 270.782 84 293.98C84 317.177 102.803 335.98 126 335.98Z" fill="#800000"/>
<path d="M126 251.98L168 293.98L126 335.98V251.98Z" fill="#008024"/>
<path d="M420 251.98H504V167.98H420V251.98Z" fill="#800000"/>
<path d="M462 180.553H491.427V209.98C491.427 226.222 478.242 239.407 462 239.407C445.758 239.407 432.573 226.222 432.573 209.98C432.573 193.737 445.758 180.553 462 180.553Z" fill="black"/>
<path d="M471.457 222.472C478.378 217.245 479.752 207.396 474.525 200.475C469.298 193.553 459.449 192.18 452.528 197.407C445.607 202.634 444.233 212.482 449.46 219.404C454.687 226.325 464.535 227.699 471.457 222.472Z" fill="white"/>
<path d="M336 167.98H252V251.98H336V167.98Z" fill="white"/>
<path d="M336 209.98H252C252 233.177 270.803 251.98 294 251.98C317.197 251.98 336 233.177 336 209.98Z" fill="#008024"/>
<path d="M294 167.98V209.98H336C336 186.782 317.197 167.98 294 167.98Z" fill="#800000"/>
<path d="M305.812 211.995C306.929 205.468 302.543 199.273 296.017 198.156C289.491 197.039 283.295 201.424 282.178 207.951C281.062 214.477 285.447 220.673 291.973 221.789C298.499 222.906 304.695 218.521 305.812 211.995Z" fill="black"/>
</g>
<g clip-path="url(#clip1_57_649)">
<path d="M1008 -0.0537109H504V335.946H1008V-0.0537109Z" fill="#FFF4E7"/>
<path d="M924 335.98H1008V251.98H924V335.98Z" fill="#008024"/>
<path d="M924 251.98V335.98C947.197 335.98 966 317.177 966 293.98C966 270.782 947.197 251.98 924 251.98Z" fill="white"/>
<path d="M1008 335.98V251.98C984.803 251.98 966 270.782 966 293.98C966 317.177 984.803 335.98 1008 335.98Z" fill="#800000"/>
<path d="M994.56 319.173C985.569 314.355 979.44 304.873 979.44 293.98C979.44 283.087 985.569 273.598 994.56 268.786V319.18V319.173Z" fill="black"/>
<path d="M588 -0.0202637H504V83.9797H588V-0.0202637Z" fill="#800000"/>
<path d="M546 -0.0202637V83.9797C569.197 83.9797 588 65.1772 588 41.9797C588 18.7823 569.197 -0.0202637 546 -0.0202637Z" fill="black"/>
<path d="M504 -0.0202637V83.9797C527.197 83.9797 546 65.1772 546 41.9797C546 18.7823 527.197 -0.0202637 504 -0.0202637Z" fill="white"/>
<path d="M630 125.98H588V167.98H630V125.98Z" fill="black"/>
<path d="M672 83.9797H630V125.98H672V83.9797Z" fill="black"/>
<path d="M657.693 125.98C657.693 141.274 645.295 153.673 630 153.673V125.98H657.693Z" fill="white"/>
<path d="M630 98.2866V125.98H602.307C602.307 110.685 614.705 98.2866 630 98.2866Z" fill="white"/>
<path d="M602.307 125.98H630V153.673C614.705 153.673 602.307 141.274 602.307 125.98Z" fill="#008024"/>
<path d="M657.693 125.98H630V98.2866C645.295 98.2866 657.693 110.685 657.693 125.98Z" fill="#008024"/>
<path d="M700.002 335.98V293.98L672 314.98L700.002 335.98Z" fill="#008024"/>
<path d="M727.998 335.98V293.98L700.002 314.98L727.998 335.98Z" fill="#008024"/>
<path d="M756 335.98V293.98L727.998 314.98L756 335.98Z" fill="#800000"/>
<path d="M727.998 251.98V293.98L756 272.98L727.998 251.98Z" fill="white"/>
<path d="M700.002 251.98V293.98L727.998 272.98L700.002 251.98Z" fill="white"/>
<path d="M672 251.98V293.98L700.002 272.98L672 251.98Z" fill="#800000"/>
<path d="M504 293.98L546 335.98V293.98H504Z" fill="#008024"/>
<path d="M525 272.98L567 314.98V272.98H525Z" fill="white"/>
<path d="M546 251.98L588 293.98V251.98H546Z" fill="#800000"/>
<path d="M924 83.9797H840V167.98H924V83.9797Z" fill="#800000"/>
<path d="M924 125.98L882 83.9797V125.98H924Z" fill="#008024"/>
<path d="M903 146.98L861 104.98V146.98H903Z" fill="white"/>
<path d="M882 167.98L840 125.98V167.98H882Z" fill="white"/>
<path d="M588 83.9797V167.98H504V125.98L546 83.9797H588Z" fill="#008024"/>
<path d="M546 125.98L504 167.98H546V125.98Z" fill="#800000"/>
<path d="M588 125.98L546 167.98H588V125.98Z" fill="#800000"/>
<path d="M546 125.98L588 83.9797H546V125.98Z" fill="white"/>
<path d="M588 167.98H504V251.98H588V167.98Z" fill="white"/>
<path d="M567 251.98H504V230.98L525 209.98L567 251.98Z" fill="#008024"/>
<path d="M588 251.98H504L546 209.98L588 251.98Z" fill="#800000"/>
<path d="M588 230.98V251.98H525L567 209.98L588 230.98Z" fill="black"/>
<path d="M588 251.98H672V167.98H588V251.98Z" fill="#800000"/>
<path d="M630 232.115C642.225 232.115 652.136 222.205 652.136 209.98C652.136 197.754 642.225 187.844 630 187.844C617.775 187.844 607.864 197.754 607.864 209.98C607.864 222.205 617.775 232.115 630 232.115Z" fill="white"/>
<path d="M588 167.98H672L630 209.98L588 167.98Z" fill="#008024"/>
<path d="M924 83.9797L1008 83.9797V-0.0202637L924 -0.0202637V83.9797Z" fill="white"/>
<path d="M1008 83.9797H924C947.197 61.5618 984.803 61.5618 1008 83.9797Z" fill="#800000"/>
<path d="M1008 67.1665H924C947.197 44.7485 984.803 44.7485 1008 67.1665Z" fill="#008024"/>
<path d="M1008 50.353H924C947.197 27.9351 984.803 27.9351 1008 50.353Z" fill="#800000"/>
<path d="M1008 33.5395H924C947.197 11.1216 984.803 11.1216 1008 33.5395Z" fill="#008024"/>
<path d="M1008 16.726H924C947.197 -5.69188 984.803 -5.69188 1008 16.726Z" fill="#800000"/>
<path d="M756 -0.0202637V41.0793H713.1V83.9797H672V-0.0202637H756Z" fill="#008024"/>
<path d="M735.605 20.3816H692.402V63.5845H735.605V20.3816Z" fill="black"/>
<path d="M714 20.3816H692.402V41.9797H714V20.3816Z" fill="white"/>
<path d="M756 83.9797H672V167.98H756V83.9797Z" fill="white"/>
<path d="M756.302 104.98H693V146.98H756.302V104.98Z" fill="#008024"/>
<path d="M693 146.98C704.598 146.98 714 137.578 714 125.98C714 114.382 704.598 104.98 693 104.98C681.402 104.98 672 114.382 672 125.98C672 137.578 681.402 146.98 693 146.98Z" fill="#800000"/>
<path d="M721.444 134.243C725.995 130.134 726.353 123.114 722.244 118.563C718.135 114.013 711.115 113.655 706.565 117.764C702.014 121.872 701.656 128.892 705.765 133.443C709.874 137.994 716.894 138.352 721.444 134.243Z" fill="black"/>
<path d="M840 126.148V167.98H798.013C798 167.698 798 167.415 798 167.133C798 144.487 816.359 126.135 838.999 126.135C839.335 126.135 839.664 126.135 840 126.148Z" fill="black"/>
<path d="M810.143 84.4906V138.116H756.316C756.302 137.753 756.302 137.397 756.302 137.034C756.302 108.004 779.836 84.4705 808.866 84.4705C809.29 84.4705 809.72 84.4772 810.143 84.4839V84.4906Z" fill="#800000"/>
<path d="M924 167.98H840V251.98H924V167.98Z" fill="#008024"/>
<path d="M839.919 251.812V168.067H923.973C924 168.632 924 169.196 924 169.761C924 215.094 887.248 251.845 841.915 251.845C841.25 251.845 840.585 251.832 839.919 251.819V251.812Z" fill="white"/>
<path d="M839.919 232.095V168.06H904.19C904.21 168.49 904.21 168.92 904.21 169.351C904.21 204.012 876.113 232.115 841.445 232.115C840.934 232.115 840.423 232.109 839.919 232.095Z" fill="#008024"/>
<path d="M839.919 211.982V168.06H884.003C884.016 168.356 884.016 168.652 884.016 168.947C884.016 192.723 864.743 211.996 840.968 211.996C840.618 211.996 840.269 211.989 839.919 211.982Z" fill="black"/>
<path d="M924 251.98H840V335.98H924V251.98Z" fill="#800000"/>
<path d="M922.696 311.25C890.716 311.25 864.797 285.331 864.797 253.351C864.797 252.88 864.797 252.41 864.81 251.939H883.371C883.371 252.262 883.358 252.585 883.358 252.907C883.358 274.841 901.139 292.622 923.073 292.622C923.348 292.622 923.617 292.622 923.893 292.609V311.23C923.489 311.25 923.093 311.25 922.696 311.25Z" fill="#008024"/>
<path d="M841.156 276.777C873.136 276.777 899.055 302.696 899.055 334.676C899.055 335.147 899.055 335.617 899.042 336.087H880.481C880.481 335.765 880.495 335.442 880.495 335.12C880.495 313.186 862.714 295.404 840.78 295.404C840.504 295.404 840.235 295.404 839.96 295.418V276.797C840.363 276.777 840.759 276.777 841.156 276.777Z" fill="white"/>
<path d="M756 83.9797L840 83.9797V-0.0202637L756 -0.0202637V83.9797Z" fill="#800000"/>
<path d="M793.147 37.1264C799.621 30.6522 799.621 20.1554 793.147 13.6812C786.672 7.20702 776.176 7.20702 769.701 13.6812C763.227 20.1554 763.227 30.6522 769.701 37.1264C776.176 43.6006 786.672 43.6006 793.147 37.1264Z" fill="black"/>
<path d="M824.477 38.6744C831.817 33.2013 833.331 22.8142 827.858 15.4742C822.385 8.13415 811.998 6.62068 804.657 12.0938C797.317 17.5668 795.804 27.9539 801.277 35.294C806.75 42.634 817.137 44.1474 824.477 38.6744Z" fill="#008024"/>
<path d="M793.146 70.2822C799.62 63.808 799.62 53.3112 793.146 46.837C786.672 40.3628 776.175 40.3628 769.701 46.837C763.226 53.3112 763.226 63.808 769.701 70.2822C776.175 76.7564 786.672 76.7564 793.146 70.2822Z" fill="white"/>
<path d="M824.48 71.8338C831.82 66.3607 833.333 55.9736 827.86 48.6336C822.387 41.2936 812 39.7801 804.66 45.2532C797.32 50.7263 795.807 61.1134 801.28 68.4534C806.753 75.7934 817.14 77.3069 824.48 71.8338Z" fill="black"/>
<path d="M860.98 -0.0202637H840V20.9596H860.98V-0.0202637Z" fill="#008024"/>
<path d="M882.034 20.8923H861.054V41.8722H882.034V20.8923Z" fill="black"/>
<path d="M882.034 62.8589H861.054V83.8387H882.034V62.8589Z" fill="black"/>
<path d="M903.013 41.8789H882.034V62.8587H903.013V41.8789Z" fill="#008024"/>
<path d="M861.047 41.8789H840.067V62.8587H861.047V41.8789Z" fill="#008024"/>
<path d="M903.013 -0.0874023H882.034V20.8924H903.013V-0.0874023Z" fill="#008024"/>
<path d="M924 62.8589H903.02V83.8387H924V62.8589Z" fill="black"/>
<path d="M924 20.8923H903.02V41.8722H924V20.8923Z" fill="black"/>
<path d="M756 335.98H840V251.98H756V335.98Z" fill="#008024"/>
<path d="M823.724 319.704C815.27 321.962 806.245 321.539 798 318.427C792.59 316.384 787.51 313.186 783.149 308.831C778.794 304.47 775.596 299.389 773.553 293.98C770.441 285.734 770.018 276.709 772.276 268.256C780.73 265.998 789.755 266.421 798 269.532C803.41 271.575 808.49 274.774 812.851 279.129C817.206 283.49 820.405 288.57 822.447 293.98C825.559 302.225 825.982 311.25 823.724 319.704Z" fill="white"/>
<path d="M822.447 293.98C820.404 288.57 817.206 283.49 812.851 279.129C808.49 274.774 803.41 271.575 798 269.532C806.245 266.421 815.27 265.998 823.724 268.256C825.982 276.709 825.559 285.734 822.447 293.98Z" fill="black"/>
<path d="M798 318.427C789.755 321.538 780.73 321.962 772.276 319.704C770.018 311.25 770.441 302.225 773.553 293.98C775.596 299.389 778.794 304.47 783.149 308.831C787.51 313.186 792.59 316.384 798 318.427Z" fill="black"/>
<path d="M822.447 293.98C820.404 299.389 817.206 304.47 812.851 308.831C808.49 313.186 803.41 316.384 798 318.427C792.59 316.384 787.51 313.186 783.149 308.831C778.794 304.47 775.595 299.389 773.553 293.98C775.595 288.57 778.794 283.49 783.149 279.129C787.51 274.774 792.59 271.575 798 269.532C803.41 271.575 808.49 274.774 812.851 279.129C817.206 283.49 820.404 288.57 822.447 293.98Z" fill="#800000"/>
<path d="M989.036 84.4705H942.964V149.016H989.036V84.4705Z" fill="black"/>
<path d="M966 116.747C978.714 116.747 989.036 127.069 989.036 139.783V149.016H942.964V139.783C942.964 127.069 953.286 116.747 966 116.747Z" fill="#800000"/>
<path d="M588 83.9797L672 83.9797V-0.0202637L588 -0.0202637V83.9797Z" fill="white"/>
<path d="M630 83.9797C653.196 83.9797 672 65.1757 672 41.9797C672 18.7838 653.196 -0.0202637 630 -0.0202637C606.804 -0.0202637 588 18.7838 588 41.9797C588 65.1757 606.804 83.9797 630 83.9797Z" fill="#008024"/>
<path d="M644.861 56.8435C653.069 48.6346 653.069 35.3254 644.861 27.1165C636.652 18.9076 623.342 18.9076 615.134 27.1165C606.925 35.3254 606.925 48.6346 615.134 56.8435C623.342 65.0524 636.652 65.0524 644.861 56.8435Z" fill="#800000"/>
<path d="M756 167.98H672V251.98H756V167.98Z" fill="#008024"/>
<path d="M756 175.896V167.98C732.836 167.98 714 186.816 714 209.98C714 233.144 732.836 251.98 756 251.98V244.064C737.204 244.064 721.916 228.776 721.916 209.98C721.916 191.184 737.204 175.896 756 175.896Z" fill="black"/>
<path d="M756 191.271V183.355C741.317 183.355 729.375 195.296 729.375 209.98C729.375 224.663 741.317 236.604 756 236.604V228.688C745.685 228.688 737.292 220.295 737.292 209.98C737.292 199.664 745.685 191.271 756 191.271Z" fill="black"/>
<path d="M756 205.901V197.985C749.387 197.985 744.011 203.367 744.011 209.973C744.011 216.579 749.394 221.962 756 221.962V214.045C753.749 214.045 751.921 212.218 751.921 209.966C751.921 207.715 753.749 205.887 756 205.887V205.901Z" fill="black"/>
<path d="M672 167.98V251.98C695.197 251.98 714 233.177 714 209.98C714 186.782 695.197 167.98 672 167.98Z" fill="white"/>
<path d="M588 335.98H672V251.98H588V335.98Z" fill="white"/>
<path d="M630 335.98V251.98C606.803 251.98 588 270.782 588 293.98C588 317.177 606.803 335.98 630 335.98Z" fill="#800000"/>
<path d="M630 251.98L672 293.98L630 335.98V251.98Z" fill="#008024"/>
<path d="M924 251.98H1008V167.98H924V251.98Z" fill="#800000"/>
<path d="M966 180.553H995.427V209.98C995.427 226.222 982.242 239.407 966 239.407C949.758 239.407 936.573 226.222 936.573 209.98C936.573 193.737 949.758 180.553 966 180.553Z" fill="black"/>
<path d="M975.457 222.472C982.378 217.245 983.752 207.396 978.525 200.475C973.298 193.553 963.449 192.18 956.528 197.407C949.607 202.634 948.233 212.482 953.46 219.404C958.687 226.325 968.535 227.699 975.457 222.472Z" fill="white"/>
<path d="M840 167.98H756V251.98H840V167.98Z" fill="white"/>
<path d="M840 209.98H756C756 233.177 774.803 251.98 798 251.98C821.197 251.98 840 233.177 840 209.98Z" fill="#008024"/>
<path d="M798 167.98V209.98H840C840 186.782 821.197 167.98 798 167.98Z" fill="#800000"/>
<path d="M809.812 211.995C810.929 205.468 806.543 199.273 800.017 198.156C793.491 197.039 787.295 201.424 786.178 207.951C785.062 214.477 789.447 220.673 795.973 221.789C802.499 222.906 808.695 218.521 809.812 211.995Z" fill="black"/>
</g>
<g clip-path="url(#clip2_57_649)">
<path d="M1512 -0.0537109H1008V335.946H1512V-0.0537109Z" fill="#FFF4E7"/>
<path d="M1428 335.98H1512V251.98H1428V335.98Z" fill="#008024"/>
<path d="M1428 251.98V335.98C1451.2 335.98 1470 317.177 1470 293.98C1470 270.782 1451.2 251.98 1428 251.98Z" fill="white"/>
<path d="M1512 335.98V251.98C1488.8 251.98 1470 270.782 1470 293.98C1470 317.177 1488.8 335.98 1512 335.98Z" fill="#800000"/>
<path d="M1498.56 319.173C1489.57 314.355 1483.44 304.873 1483.44 293.98C1483.44 283.087 1489.57 273.598 1498.56 268.786V319.18V319.173Z" fill="black"/>
<path d="M1092 -0.0202637H1008V83.9797H1092V-0.0202637Z" fill="#800000"/>
<path d="M1050 -0.0202637V83.9797C1073.2 83.9797 1092 65.1772 1092 41.9797C1092 18.7823 1073.2 -0.0202637 1050 -0.0202637Z" fill="black"/>
<path d="M1008 -0.0202637V83.9797C1031.2 83.9797 1050 65.1772 1050 41.9797C1050 18.7823 1031.2 -0.0202637 1008 -0.0202637Z" fill="white"/>
<path d="M1134 125.98H1092V167.98H1134V125.98Z" fill="black"/>
<path d="M1176 83.9797H1134V125.98H1176V83.9797Z" fill="black"/>
<path d="M1161.69 125.98C1161.69 141.274 1149.29 153.673 1134 153.673V125.98H1161.69Z" fill="white"/>
<path d="M1134 98.2866V125.98H1106.31C1106.31 110.685 1118.71 98.2866 1134 98.2866Z" fill="white"/>
<path d="M1106.31 125.98H1134V153.673C1118.71 153.673 1106.31 141.274 1106.31 125.98Z" fill="#008024"/>
<path d="M1161.69 125.98H1134V98.2866C1149.29 98.2866 1161.69 110.685 1161.69 125.98Z" fill="#008024"/>
<path d="M1204 335.98V293.98L1176 314.98L1204 335.98Z" fill="#008024"/>
<path d="M1232 335.98V293.98L1204 314.98L1232 335.98Z" fill="#008024"/>
<path d="M1260 335.98V293.98L1232 314.98L1260 335.98Z" fill="#800000"/>
<path d="M1232 251.98V293.98L1260 272.98L1232 251.98Z" fill="white"/>
<path d="M1204 251.98V293.98L1232 272.98L1204 251.98Z" fill="white"/>
<path d="M1176 251.98V293.98L1204 272.98L1176 251.98Z" fill="#800000"/>
<path d="M1008 293.98L1050 335.98V293.98H1008Z" fill="#008024"/>
<path d="M1029 272.98L1071 314.98V272.98H1029Z" fill="white"/>
<path d="M1050 251.98L1092 293.98V251.98H1050Z" fill="#800000"/>
<path d="M1428 83.9797H1344V167.98H1428V83.9797Z" fill="#800000"/>
<path d="M1428 125.98L1386 83.9797V125.98H1428Z" fill="#008024"/>
<path d="M1407 146.98L1365 104.98V146.98H1407Z" fill="white"/>
<path d="M1386 167.98L1344 125.98V167.98H1386Z" fill="white"/>
<path d="M1092 83.9797V167.98H1008V125.98L1050 83.9797H1092Z" fill="#008024"/>
<path d="M1050 125.98L1008 167.98H1050V125.98Z" fill="#800000"/>
<path d="M1092 125.98L1050 167.98H1092V125.98Z" fill="#800000"/>
<path d="M1050 125.98L1092 83.9797H1050V125.98Z" fill="white"/>
<path d="M1092 167.98H1008V251.98H1092V167.98Z" fill="white"/>
<path d="M1071 251.98H1008V230.98L1029 209.98L1071 251.98Z" fill="#008024"/>
<path d="M1092 251.98H1008L1050 209.98L1092 251.98Z" fill="#800000"/>
<path d="M1092 230.98V251.98H1029L1071 209.98L1092 230.98Z" fill="black"/>
<path d="M1092 251.98H1176V167.98H1092V251.98Z" fill="#800000"/>
<path d="M1134 232.115C1146.23 232.115 1156.14 222.205 1156.14 209.98C1156.14 197.754 1146.23 187.844 1134 187.844C1121.77 187.844 1111.86 197.754 1111.86 209.98C1111.86 222.205 1121.77 232.115 1134 232.115Z" fill="white"/>
<path d="M1092 167.98H1176L1134 209.98L1092 167.98Z" fill="#008024"/>
<path d="M1428 83.9797L1512 83.9797V-0.0202637L1428 -0.0202637V83.9797Z" fill="white"/>
<path d="M1512 83.9797H1428C1451.2 61.5618 1488.8 61.5618 1512 83.9797Z" fill="#800000"/>
<path d="M1512 67.1665H1428C1451.2 44.7485 1488.8 44.7485 1512 67.1665Z" fill="#008024"/>
<path d="M1512 50.353H1428C1451.2 27.9351 1488.8 27.9351 1512 50.353Z" fill="#800000"/>
<path d="M1512 33.5395H1428C1451.2 11.1216 1488.8 11.1216 1512 33.5395Z" fill="#008024"/>
<path d="M1512 16.726H1428C1451.2 -5.69188 1488.8 -5.69188 1512 16.726Z" fill="#800000"/>
<path d="M1260 -0.0202637V41.0793H1217.1V83.9797H1176V-0.0202637H1260Z" fill="#008024"/>
<path d="M1239.6 20.3816H1196.4V63.5845H1239.6V20.3816Z" fill="black"/>
<path d="M1218 20.3816H1196.4V41.9797H1218V20.3816Z" fill="white"/>
<path d="M1260 83.9797H1176V167.98H1260V83.9797Z" fill="white"/>
<path d="M1260.3 104.98H1197V146.98H1260.3V104.98Z" fill="#008024"/>
<path d="M1197 146.98C1208.6 146.98 1218 137.578 1218 125.98C1218 114.382 1208.6 104.98 1197 104.98C1185.4 104.98 1176 114.382 1176 125.98C1176 137.578 1185.4 146.98 1197 146.98Z" fill="#800000"/>
<path d="M1225.44 134.243C1230 130.134 1230.35 123.114 1226.24 118.563C1222.14 114.013 1215.12 113.655 1210.56 117.764C1206.01 121.872 1205.66 128.892 1209.77 133.443C1213.87 137.994 1220.89 138.352 1225.44 134.243Z" fill="black"/>
<path d="M1344 126.148V167.98H1302.01C1302 167.698 1302 167.415 1302 167.133C1302 144.487 1320.36 126.135 1343 126.135C1343.33 126.135 1343.66 126.135 1344 126.148Z" fill="black"/>
<path d="M1314.14 84.4906V138.116H1260.32C1260.3 137.753 1260.3 137.397 1260.3 137.034C1260.3 108.004 1283.84 84.4705 1312.87 84.4705C1313.29 84.4705 1313.72 84.4772 1314.14 84.4839V84.4906Z" fill="#800000"/>
<path d="M1428 167.98H1344V251.98H1428V167.98Z" fill="#008024"/>
<path d="M1343.92 251.812V168.067H1427.97C1428 168.632 1428 169.196 1428 169.761C1428 215.094 1391.25 251.845 1345.92 251.845C1345.25 251.845 1344.58 251.832 1343.92 251.819V251.812Z" fill="white"/>
<path d="M1343.92 232.095V168.06H1408.19C1408.21 168.49 1408.21 168.92 1408.21 169.351C1408.21 204.012 1380.11 232.115 1345.44 232.115C1344.93 232.115 1344.42 232.109 1343.92 232.095Z" fill="#008024"/>
<path d="M1343.92 211.982V168.06H1388C1388.02 168.356 1388.02 168.652 1388.02 168.947C1388.02 192.723 1368.74 211.996 1344.97 211.996C1344.62 211.996 1344.27 211.989 1343.92 211.982Z" fill="black"/>
<path d="M1428 251.98H1344V335.98H1428V251.98Z" fill="#800000"/>
<path d="M1426.7 311.25C1394.72 311.25 1368.8 285.331 1368.8 253.351C1368.8 252.88 1368.8 252.41 1368.81 251.939H1387.37C1387.37 252.262 1387.36 252.585 1387.36 252.907C1387.36 274.841 1405.14 292.622 1427.07 292.622C1427.35 292.622 1427.62 292.622 1427.89 292.609V311.23C1427.49 311.25 1427.09 311.25 1426.7 311.25Z" fill="#008024"/>
<path d="M1345.16 276.777C1377.14 276.777 1403.06 302.696 1403.06 334.676C1403.06 335.147 1403.06 335.617 1403.04 336.087H1384.48C1384.48 335.765 1384.49 335.442 1384.49 335.12C1384.49 313.186 1366.71 295.404 1344.78 295.404C1344.5 295.404 1344.24 295.404 1343.96 295.418V276.797C1344.36 276.777 1344.76 276.777 1345.16 276.777Z" fill="white"/>
<path d="M1260 83.9797L1344 83.9797V-0.0202637L1260 -0.0202637V83.9797Z" fill="#800000"/>
<path d="M1297.15 37.1264C1303.62 30.6522 1303.62 20.1554 1297.15 13.6812C1290.67 7.20702 1280.18 7.20702 1273.7 13.6812C1267.23 20.1554 1267.23 30.6522 1273.7 37.1264C1280.18 43.6006 1290.67 43.6006 1297.15 37.1264Z" fill="black"/>
<path d="M1328.48 38.6744C1335.82 33.2013 1337.33 22.8142 1331.86 15.4742C1326.38 8.13415 1316 6.62068 1308.66 12.0938C1301.32 17.5668 1299.8 27.9539 1305.28 35.294C1310.75 42.634 1321.14 44.1474 1328.48 38.6744Z" fill="#008024"/>
<path d="M1297.15 70.2822C1303.62 63.808 1303.62 53.3112 1297.15 46.837C1290.67 40.3628 1280.17 40.3628 1273.7 46.837C1267.23 53.3112 1267.23 63.808 1273.7 70.2822C1280.17 76.7564 1290.67 76.7564 1297.15 70.2822Z" fill="white"/>
<path d="M1328.48 71.8338C1335.82 66.3607 1337.33 55.9736 1331.86 48.6336C1326.39 41.2936 1316 39.7801 1308.66 45.2532C1301.32 50.7263 1299.81 61.1134 1305.28 68.4534C1310.75 75.7934 1321.14 77.3069 1328.48 71.8338Z" fill="black"/>
<path d="M1364.98 -0.0202637H1344V20.9596H1364.98V-0.0202637Z" fill="#008024"/>
<path d="M1386.03 20.8923H1365.05V41.8722H1386.03V20.8923Z" fill="black"/>
<path d="M1386.03 62.8589H1365.05V83.8387H1386.03V62.8589Z" fill="black"/>
<path d="M1407.01 41.8789H1386.03V62.8587H1407.01V41.8789Z" fill="#008024"/>
<path d="M1365.05 41.8789H1344.07V62.8587H1365.05V41.8789Z" fill="#008024"/>
<path d="M1407.01 -0.0874023H1386.03V20.8924H1407.01V-0.0874023Z" fill="#008024"/>
<path d="M1428 62.8589H1407.02V83.8387H1428V62.8589Z" fill="black"/>
<path d="M1428 20.8923H1407.02V41.8722H1428V20.8923Z" fill="black"/>
<path d="M1260 335.98H1344V251.98H1260V335.98Z" fill="#008024"/>
<path d="M1327.72 319.704C1319.27 321.962 1310.25 321.539 1302 318.427C1296.59 316.384 1291.51 313.186 1287.15 308.831C1282.79 304.47 1279.6 299.389 1277.55 293.98C1274.44 285.734 1274.02 276.709 1276.28 268.256C1284.73 265.998 1293.75 266.421 1302 269.532C1307.41 271.575 1312.49 274.774 1316.85 279.129C1321.21 283.49 1324.4 288.57 1326.45 293.98C1329.56 302.225 1329.98 311.25 1327.72 319.704Z" fill="white"/>
<path d="M1326.45 293.98C1324.4 288.57 1321.21 283.49 1316.85 279.129C1312.49 274.774 1307.41 271.575 1302 269.532C1310.25 266.421 1319.27 265.998 1327.72 268.256C1329.98 276.709 1329.56 285.734 1326.45 293.98Z" fill="black"/>
<path d="M1302 318.427C1293.75 321.538 1284.73 321.962 1276.28 319.704C1274.02 311.25 1274.44 302.225 1277.55 293.98C1279.6 299.389 1282.79 304.47 1287.15 308.831C1291.51 313.186 1296.59 316.384 1302 318.427Z" fill="black"/>
<path d="M1326.45 293.98C1324.4 299.389 1321.21 304.47 1316.85 308.831C1312.49 313.186 1307.41 316.384 1302 318.427C1296.59 316.384 1291.51 313.186 1287.15 308.831C1282.79 304.47 1279.6 299.389 1277.55 293.98C1279.6 288.57 1282.79 283.49 1287.15 279.129C1291.51 274.774 1296.59 271.575 1302 269.532C1307.41 271.575 1312.49 274.774 1316.85 279.129C1321.21 283.49 1324.4 288.57 1326.45 293.98Z" fill="#800000"/>
<path d="M1493.04 84.4705H1446.96V149.016H1493.04V84.4705Z" fill="black"/>
<path d="M1470 116.747C1482.71 116.747 1493.04 127.069 1493.04 139.783V149.016H1446.96V139.783C1446.96 127.069 1457.29 116.747 1470 116.747Z" fill="#800000"/>
<path d="M1092 83.9797L1176 83.9797V-0.0202637L1092 -0.0202637V83.9797Z" fill="white"/>
<path d="M1134 83.9797C1157.2 83.9797 1176 65.1757 1176 41.9797C1176 18.7838 1157.2 -0.0202637 1134 -0.0202637C1110.8 -0.0202637 1092 18.7838 1092 41.9797C1092 65.1757 1110.8 83.9797 1134 83.9797Z" fill="#008024"/>
<path d="M1148.86 56.8435C1157.07 48.6346 1157.07 35.3254 1148.86 27.1165C1140.65 18.9076 1127.34 18.9076 1119.13 27.1165C1110.92 35.3254 1110.92 48.6346 1119.13 56.8435C1127.34 65.0524 1140.65 65.0524 1148.86 56.8435Z" fill="#800000"/>
<path d="M1260 167.98H1176V251.98H1260V167.98Z" fill="#008024"/>
<path d="M1260 175.896V167.98C1236.84 167.98 1218 186.816 1218 209.98C1218 233.144 1236.84 251.98 1260 251.98V244.064C1241.2 244.064 1225.92 228.776 1225.92 209.98C1225.92 191.184 1241.2 175.896 1260 175.896Z" fill="black"/>
<path d="M1260 191.271V183.355C1245.32 183.355 1233.38 195.296 1233.38 209.98C1233.38 224.663 1245.32 236.604 1260 236.604V228.688C1249.68 228.688 1241.29 220.295 1241.29 209.98C1241.29 199.664 1249.68 191.271 1260 191.271Z" fill="black"/>
<path d="M1260 205.901V197.985C1253.39 197.985 1248.01 203.367 1248.01 209.973C1248.01 216.579 1253.39 221.962 1260 221.962V214.045C1257.75 214.045 1255.92 212.218 1255.92 209.966C1255.92 207.715 1257.75 205.887 1260 205.887V205.901Z" fill="black"/>
<path d="M1176 167.98V251.98C1199.2 251.98 1218 233.177 1218 209.98C1218 186.782 1199.2 167.98 1176 167.98Z" fill="white"/>
<path d="M1092 335.98H1176V251.98H1092V335.98Z" fill="white"/>
<path d="M1134 335.98V251.98C1110.8 251.98 1092 270.782 1092 293.98C1092 317.177 1110.8 335.98 1134 335.98Z" fill="#800000"/>
<path d="M1134 251.98L1176 293.98L1134 335.98V251.98Z" fill="#008024"/>
<path d="M1428 251.98H1512V167.98H1428V251.98Z" fill="#800000"/>
<path d="M1470 180.553H1499.43V209.98C1499.43 226.222 1486.24 239.407 1470 239.407C1453.76 239.407 1440.57 226.222 1440.57 209.98C1440.57 193.737 1453.76 180.553 1470 180.553Z" fill="black"/>
<path d="M1479.46 222.472C1486.38 217.245 1487.75 207.396 1482.52 200.475C1477.3 193.553 1467.45 192.18 1460.53 197.407C1453.61 202.634 1452.23 212.482 1457.46 219.404C1462.69 226.325 1472.54 227.699 1479.46 222.472Z" fill="white"/>
<path d="M1344 167.98H1260V251.98H1344V167.98Z" fill="white"/>
<path d="M1344 209.98H1260C1260 233.177 1278.8 251.98 1302 251.98C1325.2 251.98 1344 233.177 1344 209.98Z" fill="#008024"/>
<path d="M1302 167.98V209.98H1344C1344 186.782 1325.2 167.98 1302 167.98Z" fill="#800000"/>
<path d="M1313.81 211.995C1314.93 205.468 1310.54 199.273 1304.02 198.156C1297.49 197.039 1291.3 201.424 1290.18 207.951C1289.06 214.477 1293.45 220.673 1299.97 221.789C1306.5 222.906 1312.7 218.521 1313.81 211.995Z" fill="black"/>
</g>
<g clip-path="url(#clip3_57_649)">
<path d="M2003 -0.0537109H1512V335.946H2003V-0.0537109Z" fill="#FFF4E7"/>
<path d="M1593.83 -0.0202637H1512V83.9797H1593.83V-0.0202637Z" fill="#800000"/>
<path d="M1552.92 -0.0202637V83.9797C1575.52 83.9797 1593.83 65.1772 1593.83 41.9797C1593.83 18.7823 1575.52 -0.0202637 1552.92 -0.0202637Z" fill="black"/>
<path d="M1512 -0.0202637V83.9797C1534.6 83.9797 1552.92 65.1772 1552.92 41.9797C1552.92 18.7823 1534.6 -0.0202637 1512 -0.0202637Z" fill="white"/>
<path d="M1634.75 125.98H1593.83V167.98H1634.75V125.98Z" fill="black"/>
<path d="M1675.67 83.9797H1634.75V125.98H1675.67V83.9797Z" fill="black"/>
<path d="M1661.73 125.98C1661.73 141.274 1649.65 153.673 1634.75 153.673V125.98H1661.73Z" fill="white"/>
<path d="M1634.75 98.2866V125.98H1607.77C1607.77 110.685 1619.85 98.2866 1634.75 98.2866Z" fill="white"/>
<path d="M1607.77 125.98H1634.75V153.673C1619.85 153.673 1607.77 141.274 1607.77 125.98Z" fill="#008024"/>
<path d="M1661.73 125.98H1634.75V98.2866C1649.65 98.2866 1661.73 110.685 1661.73 125.98Z" fill="#008024"/>
<path d="M1702.95 335.98V293.98L1675.67 314.98L1702.95 335.98Z" fill="#008024"/>
<path d="M1730.22 335.98V293.98L1702.95 314.98L1730.22 335.98Z" fill="#008024"/>
<path d="M1757.5 335.98V293.98L1730.22 314.98L1757.5 335.98Z" fill="#800000"/>
<path d="M1730.22 251.98V293.98L1757.5 272.98L1730.22 251.98Z" fill="white"/>
<path d="M1702.95 251.98V293.98L1730.22 272.98L1702.95 251.98Z" fill="white"/>
<path d="M1675.67 251.98V293.98L1702.95 272.98L1675.67 251.98Z" fill="#800000"/>
<path d="M1512 293.98L1552.92 335.98V293.98H1512Z" fill="#008024"/>
<path d="M1532.46 272.98L1573.37 314.98V272.98H1532.46Z" fill="white"/>
<path d="M1552.92 251.98L1593.83 293.98V251.98H1552.92Z" fill="#800000"/>
<path d="M1921.17 83.9797H1839.33V167.98H1921.17V83.9797Z" fill="#800000"/>
<path d="M1921.17 125.98L1880.25 83.9797V125.98H1921.17Z" fill="#008024"/>
<path d="M1900.71 146.98L1859.79 104.98V146.98H1900.71Z" fill="white"/>
<path d="M1880.25 167.98L1839.33 125.98V167.98H1880.25Z" fill="white"/>
<path d="M1593.83 83.9797V167.98H1512V125.98L1552.92 83.9797H1593.83Z" fill="#008024"/>
<path d="M1552.92 125.98L1512 167.98H1552.92V125.98Z" fill="#800000"/>
<path d="M1593.83 125.98L1552.92 167.98H1593.83V125.98Z" fill="#800000"/>
<path d="M1552.92 125.98L1593.83 83.9797H1552.92V125.98Z" fill="white"/>
<path d="M1593.83 167.98H1512V251.98H1593.83V167.98Z" fill="white"/>
<path d="M1573.38 251.98H1512V230.98L1532.46 209.98L1573.38 251.98Z" fill="#008024"/>
<path d="M1593.83 251.98H1512L1552.92 209.98L1593.83 251.98Z" fill="#800000"/>
<path d="M1593.83 230.98V251.98H1532.46L1573.37 209.98L1593.83 230.98Z" fill="black"/>
<path d="M1593.83 251.98H1675.67V167.98H1593.83V251.98Z" fill="#800000"/>
<path d="M1634.75 232.115C1646.66 232.115 1656.31 222.205 1656.31 209.98C1656.31 197.754 1646.66 187.844 1634.75 187.844C1622.84 187.844 1613.19 197.754 1613.19 209.98C1613.19 222.205 1622.84 232.115 1634.75 232.115Z" fill="white"/>
<path d="M1593.83 167.98H1675.67L1634.75 209.98L1593.83 167.98Z" fill="#008024"/>
<path d="M1757.5 -0.0202637V41.0793H1715.71V83.9797H1675.67V-0.0202637H1757.5Z" fill="#008024"/>
<path d="M1737.63 20.3816H1695.54V63.5845H1737.63V20.3816Z" fill="black"/>
<path d="M1716.58 20.3816H1695.54V41.9797H1716.58V20.3816Z" fill="white"/>
<path d="M1757.5 83.9797H1675.67V167.98H1757.5V83.9797Z" fill="white"/>
<path d="M1757.79 104.98H1696.12V146.98H1757.79V104.98Z" fill="#008024"/>
<path d="M1696.13 146.98C1707.42 146.98 1716.58 137.578 1716.58 125.98C1716.58 114.382 1707.42 104.98 1696.13 104.98C1684.83 104.98 1675.67 114.382 1675.67 125.98C1675.67 137.578 1684.83 146.98 1696.13 146.98Z" fill="#800000"/>
<path d="M1723.84 134.243C1728.27 130.134 1728.62 123.114 1724.61 118.563C1720.61 114.013 1713.77 113.655 1709.34 117.764C1704.91 121.872 1704.56 128.892 1708.56 133.443C1712.56 137.994 1719.4 138.352 1723.84 134.243Z" fill="black"/>
<path d="M1839.33 126.148V167.98H1798.43C1798.42 167.698 1798.42 167.415 1798.42 167.133C1798.42 144.487 1816.3 126.135 1838.36 126.135C1838.69 126.135 1839.01 126.135 1839.33 126.148Z" fill="black"/>
<path d="M1810.25 84.4906V138.116H1757.81C1757.79 137.753 1757.79 137.397 1757.79 137.034C1757.79 108.004 1780.72 84.4705 1809 84.4705C1809.42 84.4705 1809.83 84.4772 1810.25 84.4839V84.4906Z" fill="#800000"/>
<path d="M1921.17 167.98H1839.33V251.98H1921.17V167.98Z" fill="#008024"/>
<path d="M1839.25 251.812V168.067H1921.14C1921.17 168.632 1921.17 169.196 1921.17 169.761C1921.17 215.094 1885.36 251.845 1841.2 251.845C1840.55 251.845 1839.9 251.832 1839.25 251.819V251.812Z" fill="white"/>
<path d="M1839.25 232.095V168.06H1901.87C1901.89 168.49 1901.89 168.92 1901.89 169.351C1901.89 204.012 1874.52 232.115 1840.74 232.115C1840.24 232.115 1839.75 232.109 1839.25 232.095Z" fill="#008024"/>
<path d="M1839.25 211.982V168.06H1882.2C1882.21 168.356 1882.21 168.652 1882.21 168.947C1882.21 192.723 1863.44 211.996 1840.28 211.996C1839.94 211.996 1839.6 211.989 1839.25 211.982Z" fill="black"/>
<path d="M1921.17 251.98H1839.33V335.98H1921.17V251.98Z" fill="#800000"/>
<path d="M1919.9 311.25C1888.74 311.25 1863.49 285.331 1863.49 253.351C1863.49 252.88 1863.49 252.41 1863.5 251.939H1881.59C1881.59 252.262 1881.57 252.585 1881.57 252.907C1881.57 274.841 1898.89 292.622 1920.26 292.622C1920.53 292.622 1920.79 292.622 1921.06 292.609V311.23C1920.67 311.25 1920.28 311.25 1919.9 311.25Z" fill="#008024"/>
<path d="M1840.46 276.777C1871.61 276.777 1896.87 302.696 1896.87 334.676C1896.87 335.147 1896.87 335.617 1896.85 336.087H1878.77C1878.77 335.765 1878.78 335.442 1878.78 335.12C1878.78 313.186 1861.46 295.404 1840.09 295.404C1839.82 295.404 1839.56 295.404 1839.29 295.418V276.797C1839.69 276.777 1840.07 276.777 1840.46 276.777Z" fill="white"/>
<path d="M1757.5 83.9797L1839.33 83.9797V-0.0202637L1757.5 -0.0202637V83.9797Z" fill="#800000"/>
<path d="M1793.69 37.1264C1800 30.6522 1800 20.1554 1793.69 13.6812C1787.38 7.20702 1777.16 7.20702 1770.85 13.6812C1764.54 20.1554 1764.54 30.6522 1770.85 37.1264C1777.16 43.6006 1787.38 43.6006 1793.69 37.1264Z" fill="black"/>
<path d="M1824.21 38.6744C1831.36 33.2013 1832.84 22.8142 1827.5 15.4742C1822.17 8.13414 1812.05 6.62068 1804.9 12.0938C1797.75 17.5668 1796.28 27.9539 1801.61 35.294C1806.94 42.634 1817.06 44.1474 1824.21 38.6744Z" fill="#008024"/>
<path d="M1793.69 70.2822C1799.99 63.808 1799.99 53.3112 1793.69 46.837C1787.38 40.3628 1777.15 40.3628 1770.85 46.837C1764.54 53.3112 1764.54 63.808 1770.85 70.2822C1777.15 76.7564 1787.38 76.7564 1793.69 70.2822Z" fill="white"/>
<path d="M1824.21 71.8338C1831.36 66.3607 1832.84 55.9736 1827.51 48.6336C1822.17 41.2936 1812.06 39.7801 1804.9 45.2532C1797.75 50.7263 1796.28 61.1134 1801.61 68.4534C1806.94 75.7934 1817.06 77.3069 1824.21 71.8338Z" fill="black"/>
<path d="M1859.77 -0.0202637H1839.33V20.9596H1859.77V-0.0202637Z" fill="#008024"/>
<path d="M1880.28 20.8923H1859.84V41.8722H1880.28V20.8923Z" fill="black"/>
<path d="M1880.28 62.8589H1859.84V83.8387H1880.28V62.8589Z" fill="black"/>
<path d="M1900.72 41.8789H1880.28V62.8587H1900.72V41.8789Z" fill="#008024"/>
<path d="M1859.84 41.8789H1839.4V62.8587H1859.84V41.8789Z" fill="#008024"/>
<path d="M1900.72 -0.0874023H1880.28V20.8924H1900.72V-0.0874023Z" fill="#008024"/>
<path d="M1921.17 62.8589H1900.73V83.8387H1921.17V62.8589Z" fill="black"/>
<path d="M1921.17 20.8923H1900.73V41.8722H1921.17V20.8923Z" fill="black"/>
<path d="M1757.5 335.98H1839.33V251.98H1757.5V335.98Z" fill="#008024"/>
<path d="M1823.48 319.704C1815.24 321.962 1806.45 321.539 1798.42 318.427C1793.15 316.384 1788.2 313.186 1783.95 308.831C1779.71 304.47 1776.59 299.389 1774.6 293.98C1771.57 285.734 1771.16 276.709 1773.36 268.256C1781.59 265.998 1790.38 266.421 1798.42 269.532C1803.69 271.575 1808.64 274.774 1812.88 279.129C1817.13 283.49 1820.24 288.57 1822.23 293.98C1825.26 302.225 1825.68 311.25 1823.48 319.704Z" fill="white"/>
<path d="M1822.23 293.98C1820.24 288.57 1817.13 283.49 1812.88 279.129C1808.64 274.774 1803.69 271.575 1798.42 269.532C1806.45 266.421 1815.24 265.998 1823.48 268.256C1825.68 276.709 1825.26 285.734 1822.23 293.98Z" fill="black"/>
<path d="M1798.42 318.427C1790.38 321.538 1781.59 321.962 1773.36 319.704C1771.16 311.25 1771.57 302.225 1774.6 293.98C1776.59 299.389 1779.71 304.47 1783.95 308.831C1788.2 313.186 1793.15 316.384 1798.42 318.427Z" fill="black"/>
<path d="M1822.23 293.98C1820.24 299.389 1817.13 304.47 1812.88 308.831C1808.64 313.186 1803.69 316.384 1798.42 318.427C1793.15 316.384 1788.2 313.186 1783.95 308.831C1779.71 304.47 1776.59 299.389 1774.6 293.98C1776.59 288.57 1779.71 283.49 1783.95 279.129C1788.2 274.774 1793.15 271.575 1798.42 269.532C1803.69 271.575 1808.64 274.774 1812.88 279.129C1817.13 283.49 1820.24 288.57 1822.23 293.98Z" fill="#800000"/>
<path d="M1593.83 83.9797L1675.67 83.9797V-0.0202637L1593.83 -0.0202637V83.9797Z" fill="white"/>
<path d="M1634.75 83.9797C1657.35 83.9797 1675.67 65.1757 1675.67 41.9797C1675.67 18.7838 1657.35 -0.0202637 1634.75 -0.0202637C1612.15 -0.0202637 1593.83 18.7838 1593.83 41.9797C1593.83 65.1757 1612.15 83.9797 1634.75 83.9797Z" fill="#008024"/>
<path d="M1649.23 56.8435C1657.22 48.6346 1657.22 35.3254 1649.23 27.1165C1641.23 18.9076 1628.26 18.9076 1620.27 27.1165C1612.27 35.3254 1612.27 48.6346 1620.27 56.8435C1628.26 65.0524 1641.23 65.0524 1649.23 56.8435Z" fill="#800000"/>
<path d="M1757.5 167.98H1675.67V251.98H1757.5V167.98Z" fill="#008024"/>
<path d="M1757.5 175.896V167.98C1734.93 167.98 1716.58 186.816 1716.58 209.98C1716.58 233.144 1734.93 251.98 1757.5 251.98V244.064C1739.19 244.064 1724.3 228.776 1724.3 209.98C1724.3 191.184 1739.19 175.896 1757.5 175.896Z" fill="black"/>
<path d="M1757.5 191.271V183.355C1743.2 183.355 1731.56 195.296 1731.56 209.98C1731.56 224.663 1743.2 236.604 1757.5 236.604V228.688C1747.45 228.688 1739.27 220.295 1739.27 209.98C1739.27 199.664 1747.45 191.271 1757.5 191.271Z" fill="black"/>
<path d="M1757.5 205.901V197.985C1751.06 197.985 1745.82 203.367 1745.82 209.973C1745.82 216.579 1751.06 221.962 1757.5 221.962V214.045C1755.31 214.045 1753.53 212.218 1753.53 209.966C1753.53 207.715 1755.31 205.887 1757.5 205.887V205.901Z" fill="black"/>
<path d="M1675.67 167.98V251.98C1698.27 251.98 1716.58 233.177 1716.58 209.98C1716.58 186.782 1698.27 167.98 1675.67 167.98Z" fill="white"/>
<path d="M1593.83 335.98H1675.67V251.98H1593.83V335.98Z" fill="white"/>
<path d="M1634.75 335.98V251.98C1612.15 251.98 1593.83 270.782 1593.83 293.98C1593.83 317.177 1612.15 335.98 1634.75 335.98Z" fill="#800000"/>
<path d="M1634.75 251.98L1675.67 293.98L1634.75 335.98V251.98Z" fill="#008024"/>
<path d="M1839.33 167.98H1757.5V251.98H1839.33V167.98Z" fill="white"/>
<path d="M1839.33 209.98H1757.5C1757.5 233.177 1775.82 251.98 1798.42 251.98C1821.02 251.98 1839.33 233.177 1839.33 209.98Z" fill="#008024"/>
<path d="M1798.42 167.98V209.98H1839.33C1839.33 186.782 1821.02 167.98 1798.42 167.98Z" fill="#800000"/>
<path d="M1809.92 211.995C1811.01 205.468 1806.74 199.273 1800.38 198.156C1794.02 197.039 1787.99 201.424 1786.9 207.951C1785.81 214.477 1790.08 220.673 1796.44 221.789C1802.8 222.906 1808.84 218.521 1809.92 211.995Z" fill="black"/>
</g>
<defs>
<clipPath id="clip0_57_649">
<rect width="504" height="336" fill="white"/>
</clipPath>
<clipPath id="clip1_57_649">
<rect width="504" height="336" fill="white" transform="translate(504)"/>
</clipPath>
<clipPath id="clip2_57_649">
<rect width="504" height="336" fill="white" transform="translate(1008)"/>
</clipPath>
<clipPath id="clip3_57_649">
<rect width="491" height="336" fill="white" transform="translate(1512)"/>
</clipPath>
</defs>
</svg>
